<?xml version="1.0" encoding="utf-8"?>
<!-- Svg Vector Icons : http://www.onlinewebfonts.com/icon -->
<!DOCTYPE svg PUBLIC "-//W3C//DTD SVG 1.1//EN" "http://www.w3.org/Graphics/SVG/1.1/DTD/svg11.dtd">
<svg version="1.1" xmlns="http://www.w3.org/2000/svg" xmlns:xlink="http://www.w3.org/1999/xlink" x="0px" y="0px" viewBox="0 0 1000 1000" enable-background="new 0 0 1000 1000" xml:space="preserve">
<metadata> Svg Vector Icons : http://www.onlinewebfonts.com/icon </metadata>
<g><g transform="translate(0.000000,496.000000) scale(0.100000,-0.100000)"><path fill="#FF5722" d="M1376.7,3428.3L100,2151.6v-3470.2v-3468.3h4900h4900v3468.3v3470.2L8623.3,3428.3L7344.7,4706.9L6173.3,3535.5L5000,2362.1L3826.7,3535.5L2655.3,4706.9L1376.7,3428.3z M4808.6-1194.2v-3190.7H2645.7H482.8v3181.2v3183.1L1570,3066.5l1085.3,1085.3l1077.6-1077.6l1075.7-1075.7V-1194.2z M9517.2-1201.8v-3183.1H7354.3H5191.4v3190.7v3192.7l1075.7,1075.7l1077.6,1077.6L8430,3066.5l1087.2-1087.2V-1201.8z"/>
<path fill="#FFFFFF" d="M884.8,897.9V113.1h784.8h784.8v784.8v784.8h-784.8H884.8V897.9z M2052.3,907.5V515.1H1660h-392.4v379c0,208.6,5.7,386.6,13.4,392.4c5.7,7.7,183.7,13.4,392.4,13.4h379V907.5z"/>
<path d="M2840.9,903.6l5.7-780.9l780.9-5.7l779-3.8v784.8v784.8h-784.8h-784.8L2840.9,903.6z M4023.8,907.5V515.1h-392.4h-392.4v392.4v392.4h392.4h392.4V907.5z"/>
<path d="M884.8-1054.5v-784.8h784.8h784.8v784.8v784.8h-784.8H884.8V-1054.5z M2052.3-1064v-392.4l-386.6,3.8l-388.5,5.7l-5.7,388.6l-3.8,386.6H1660h392.4V-1064z"/>
<path fill="#FFFFFF" d="M2850.5-283.1c-7.7-5.7-13.4-359.8-13.4-784.8v-771.4h784.8h784.8v784.8v784.8h-771.4C3210.4-269.7,2856.2-275.4,2850.5-283.1z M4023.8-1064v-392.4h-392.4h-392.4v392.4v392.4h392.4h392.4V-1064z"/>
<path d="M884.8-3025.9v-784.8l780.9,3.8l779,5.7l5.7,780.9l3.8,779h-784.8H884.8V-3025.9z M2052.3-3016.4v-392.4H1660h-392.4v379c0,208.6,5.7,386.6,13.4,392.4c5.7,7.7,183.7,13.4,392.4,13.4h379V-3016.4z"/>
<path fill="#FFFFFF" d="M2840.9-3020.2l5.7-780.9l780.9-5.7l779-3.8v784.8v784.8h-784.8h-784.8L2840.9-3020.2z M4023.8-3016.4v-392.4h-392.4h-392.4v392.4v392.4h392.4h392.4V-3016.4z"/>
<path d="M5593.4,897.9V113.1l780.9,3.8l779,5.7l5.7,780.9l3.8,779h-784.8h-784.8V897.9z M6760.9,907.5V515.1h-392.4h-392.4v392.4v392.4h392.4h392.4V907.5z"/>
<path fill="#FFFFFF" d="M7545.7,897.9V113.1h784.8h784.8v784.8v784.8h-784.8h-784.8V897.9z M8728.6,903.6l3.8-388.5H8340h-392.4v392.4v392.4l388.6-3.8l386.6-5.7L8728.6,903.6z"/>
<path fill="#FFFFFF" d="M5593.4-1054.5v-784.8h784.8h784.8l-3.8,780.9l-5.7,779l-779,5.7l-780.9,3.8V-1054.5z M6760.9-1064v-392.4h-392.4h-392.4v392.4v392.4h392.4h392.4V-1064z"/>
<path d="M7545.7-1054.5v-784.8h784.8h784.8v784.8v784.8h-784.8h-784.8V-1054.5z M8728.6-1058.3l-5.7-388.6l-386.6-5.7l-388.6-3.8v392.4v392.4H8340h392.4L8728.6-1058.3z"/>
<path fill="#FFFFFF" d="M5593.4-3025.9v-784.8l780.9,3.8l779,5.7l5.7,780.9l3.8,779h-784.8h-784.8V-3025.9z M6760.9-3016.4v-392.4h-392.4h-392.4v392.4v392.4h392.4h392.4V-3016.4z"/>
<path d="M7549.5-3020.2l5.7-780.9l780.9-5.7l779-3.8v784.8v784.8h-784.8h-784.8L7549.5-3020.2z M8728.6-3020.2l3.8-388.6H8340h-392.4v392.4v392.4l388.6-3.8l386.6-5.7L8728.6-3020.2z"/></g></g>
</svg>