<?xml version="1.0" encoding="utf-8"?>
<!-- Svg Vector Icons : http://www.onlinewebfonts.com/icon -->
<!DOCTYPE svg PUBLIC "-//W3C//DTD SVG 1.1//EN" "http://www.w3.org/Graphics/SVG/1.1/DTD/svg11.dtd">
<svg version="1.1" xmlns="http://www.w3.org/2000/svg" xmlns:xlink="http://www.w3.org/1999/xlink" x="0px" y="0px" viewBox="0 0 1000 1000" enable-background="new 0 0 1000 1000" xml:space="preserve">
<metadata> Svg Vector Icons : http://www.onlinewebfonts.com/icon </metadata>
<g><g transform="translate(0.000000,512.000000) scale(0.100000,-0.100000)"><path d="M5654,4972.7c-139.9-70.9-396.7-323.8-515.5-507.8c-157.1-243.3-281.7-597.9-320-919.8c-7.7-53.7-21.1-92-34.5-90c-13.4,0-51.7,61.3-88.1,137.9c-180.1,379.4-632.4,628.5-1145.9,634.3c-185.9,1.9-199.3,0-245.3-47.9c-67.1-65.2-78.6-162.9-30.7-241.5c28.7-46,57.5-63.2,136.1-80.5c53.7-11.5,134.1-21.1,180.1-21.1c103.5,0,348.8-61.3,448.4-113c99.6-51.7,189.7-126.5,254.9-220.4c67.1-90.1,69-107.3,15.3-107.3c-21.1,0-149.5-24.9-281.7-55.6C2461.6,2976,1258.2,1766.9,959.2,253c-21.1-111.1-42.2-231.9-44.1-268.3c-5.7-63.2-11.5-69-139.9-115c-203.1-76.7-256.8-109.2-389-241.4C-123.5-881.4,75.8-1739.9,759.9-1979.4c97.7-34.5,101.6-40.2,132.2-141.8c15.3-57.5,65.2-191.6,107.3-297c392.8-992.6,1209.2-1726.6,2324.4-2096.4c576.8-191.6,1029-262.5,1676.7-262.5c647.7,0,1099.9,70.9,1676.7,262.5c1115.3,369.8,1931.6,1103.8,2324.4,2096.4c42.2,105.4,92,239.5,107.3,297c30.7,101.6,34.5,107.3,132.2,141.8c153.3,53.7,260.6,122.6,383.2,245.3c371.8,371.8,366,985-9.6,1362.5c-132.2,132.2-185.9,164.8-389,241.4c-128.4,46-134.1,51.7-139.9,115c-1.9,36.4-23,157.1-44.1,268.3c-235.7,1193.8-1036.7,2215.2-2169.2,2767.1c-438.8,214.6-910.2,352.6-1354.8,396.7c-337.3,32.6-314.3,23-300.9,132.2c23,185.9,74.7,356.4,168.6,546.1c107.3,220.4,247.2,387.1,433.1,521.2c67.1,47.9,132.2,111.1,141.8,138c42.2,111.1-28.8,239.5-145.6,260.6C5774.7,5022.6,5726.8,5011.1,5654,4972.7z M5661.7,3002.8c379.4-67.1,678.4-162.9,1015.6-325.8c1007.9-486.7,1728.5-1374,1964.2-2424.1c28.7-126.5,95.8-636.2,95.8-722.4c0-7.7,80.5-15.3,178.2-15.3c153.3,0,187.8-7.7,272.1-51.7c199.3-105.4,302.8-270.2,312.3-498.2c7.7-124.6,0-162.9-38.3-249.1c-95.8-208.9-247.2-316.2-505.9-358.3l-136.1-23l-34.5-147.5C8503.5-3018,7576-3901.4,6228.9-4240.6c-772.2-195.5-1684.4-195.5-2456.6,0C2425.1-3901.4,1497.7-3018,1216-1812.7l-34.5,147.5l-136.1,23c-258.7,42.1-410.1,149.5-505.9,358.3c-38.3,86.2-46,124.6-38.3,249.1c9.6,228,113.1,392.8,312.3,498.2c84.3,44.1,118.8,51.7,272.1,51.7c97.7,0,178.2,7.7,178.2,15.3c0,86.2,67.1,596,95.8,722.4c136.1,607.5,444.6,1180.4,875.7,1630.7c343,356.4,655.4,584.5,1088.4,793.3c473.3,228,933.2,344.9,1446.8,369.8C5081.1,3062.3,5426,3045,5661.7,3002.8z"/><path d="M3318.1-91.9c-109.2-23-264.4-109.2-323.9-182.1c-147.5-172.5-185.9-431.2-95.8-628.5c235.7-517.4,992.6-431.2,1105.7,124.6C4084.6-375.5,3718.6-9.5,3318.1-91.9z"/><path d="M6426.3-99.6c-293.2-72.8-488.7-381.3-429.2-678.4c113.1-555.7,870-641.9,1105.7-124.6c92,199.3,51.7,456.1-97.7,632.4c-67.1,78.6-262.5,172.5-385.2,185.9C6568.1-78.5,6479.9-86.2,6426.3-99.6z"/><path d="M3783.8-2481.5c-157.1-40.2-199.3-206.9-82.4-329.6c70.9-74.7,356.4-218.4,565.3-287.4c249.1-80.5,423.5-107.3,733.9-107.3c423.5,0,728.2,70.9,1075,251c258.7,134.1,331.5,230,275.9,364.1c-28.7,69-141.8,130.3-207,113.1c-23-7.7-97.7-46-166.7-86.2c-588.3-341.1-1366.3-341.1-1954.6,0C3885.3-2483.4,3841.3-2468.1,3783.8-2481.5z"/></g></g>
</svg>