<?xml version="1.0" encoding="utf-8"?>
<!-- Svg Vector Icons : http://www.onlinewebfonts.com/icon -->
<!DOCTYPE svg PUBLIC "-//W3C//DTD SVG 1.1//EN" "http://www.w3.org/Graphics/SVG/1.1/DTD/svg11.dtd">
<svg version="1.1" xmlns="http://www.w3.org/2000/svg" xmlns:xlink="http://www.w3.org/1999/xlink" x="0px" y="0px" viewBox="0 0 1000 1000" enable-background="new 0 0 1000 1000" xml:space="preserve">
<metadata> Svg Vector Icons : http://www.onlinewebfonts.com/icon </metadata>
<g><g transform="translate(0.000000,362.000000) scale(0.100000,-0.100000)"><path fill="#76D7C4" d="M2712.2,2039.1c-325.6-53.6-563-122.6-835-241.3c-218.3-95.8-346.6-174.3-890.5-557.3c-609-427.1-768-587.9-854.1-865.6C38.7,64.6,146-184.4,475.4-406.5c321.7-216.4,450.1-496,580.3-1267.8c32.6-189.6,76.6-406,97.7-478.8c74.7-252.8,260.5-534.3,459.6-697.1c91.9-74.7,93.8-78.5,55.5-99.6c-23-13.4-93.8-30.7-157-38.3c-149.4-21.1-226-88.1-226-193.4c0-88.1,70.9-180,151.3-195.3c82.4-17.2,281.5,21.1,394.5,74.7c55.5,24.9,139.8,80.4,187.7,124.5l88.1,76.6L3982-3666c1032.3-310.3,1936.2-578.4,2007-595.6c72.8-17.2,206.8-36.4,300.7-42.1l166.6-11.5l67-126.4c78.5-149.4,201.1-302.6,279.6-354.3c124.5-78.5,285.4,11.5,285.4,160.9c0,59.4-19.2,97.7-105.3,206.8c-57.5,74.7-105.3,139.8-105.3,145.5c0,5.8,23,11.5,49.8,11.5c69,0,317.9,65.1,478.8,126.4c243.2,91.9,423.3,199.2,706.7,427.1l281.5,226l118.8-120.7c109.1-113,124.5-122.6,199.2-122.6c61.3,0,93.8,11.5,128.3,45.9c95.8,95.8,82.4,189.6-55.5,354.3c-128.3,153.2-134.1,174.3-76.6,302.6c80.4,180,118.7,296.8,237.5,743.1c122.6,465.4,197.3,679.9,291.1,827.3c34.5,55.5,162.8,201.1,283.4,325.6C9687.1-963.8,9756-877.6,9805.8-778c193.4,392.6,84.3,835-285.4,1149.1c-227.9,195.4-178.1,180-3087.2,940.3c-1472.7,383-2746.3,710.5-2832.5,727.7C3411.3,2073.6,2934.4,2073.6,2712.2,2039.1z M3478.3,1658c95.8-13.4,1365.5-337.1,2824.8-718.2C9173.9,191,9145.1,200.6,9321.3,22.5c124.5-124.5,180-249,180-406c-1.9-239.4-55.5-306.4-612.8-756.5c-337.1-273.9-425.2-333.2-622.4-430.9C7726-1839,7005.9-1940.5,6467.8-1827.5C6232.2-1777.7,822-132.6,709-75.2c-281.5,139.8-283.4,348.6-5.7,616.7c155.1,147.5,1030.3,748.8,1242.9,854.1C2430.7,1631.2,3007.2,1730.8,3478.3,1658z M3711.9-1415.8c1357.8-411.7,2543.3-766,2631.4-789c233.6-57.5,750.7-70.8,1051.4-26.8c429,61.3,817.8,180,1108.9,337.1c76.6,42.1,145.5,72.8,149.4,69c9.6-11.5-172.4-697.1-229.8-865.6c-107.3-314.1-187.7-421.3-520.9-693.3c-308.3-252.8-538.1-377.3-833.1-453.9c-386.9-101.5-723.9-107.2-1062.9-21.1C5573.4-3748.4,2053.4-2674,1974.9-2630c-118.7,68.9-287.3,249-358.1,383c-78.5,147.5-109.2,256.6-178.1,656.9c-67,384.9-136,664.6-201.1,829.2c-32.6,78.5-38.3,109.2-21.1,103.4C1229.9-663.1,2354.1-1004,3711.9-1415.8z"/><path d="M2942.1,1376.5c-641.6-74.7-1216.1-381.1-1392.3-739.2c-155.1-316-19.2-637.7,335.1-800.5c132.2-59.4,4031.3-1208.4,4383.7-1290.8c802.4-187.7,1890.2,120.6,2215.8,626.2c32.5,51.7,72.8,149.4,90,218.3c28.7,113,28.7,134.1,0,243.2c-63.2,249-264.3,434.7-593.7,551.6c-99.6,34.5-4219,1143.3-4351.1,1172C3486,1386,3114.4,1397.5,2942.1,1376.5z M3612.4,959C3857.5,899.6,7678.1-132.6,7816-176.7c155.1-49.8,272-116.8,335.1-191.5c183.8-218.3-210.7-547.7-842.6-697.1c-206.8-47.9-691.3-59.4-892.4-19.2C6199.7-1040.4,2206.7,124,2078.3,181.4c-250.9,111.1-262.4,241.3-44,438.5c166.6,149.4,492.2,285.4,825.4,346.7C3076.1,1006.8,3430.4,1001.1,3612.4,959z"/></g></g>
</svg>