<?xml version="1.0" encoding="utf-8"?>
<!-- Svg Vector Icons : http://www.onlinewebfonts.com/icon -->
<!DOCTYPE svg PUBLIC "-//W3C//DTD SVG 1.1//EN" "http://www.w3.org/Graphics/SVG/1.1/DTD/svg11.dtd">
<svg version="1.1" xmlns="http://www.w3.org/2000/svg" xmlns:xlink="http://www.w3.org/1999/xlink" x="0px" y="0px" viewBox="0 0 1000 1000" enable-background="new 0 0 1000 1000" xml:space="preserve">
<metadata> Svg Vector Icons : http://www.onlinewebfonts.com/icon </metadata>
<g><g transform="translate(0.000000,512.000000) scale(0.100000,-0.100000)"><path fill="#76D7C4" d="M4406.6,4110.8c0-712-5.7-911.1-23-918.7c-13.4-3.8-105.3-28.7-204.8-57.4c-434.5-120.6-857.5-367.5-1190.6-698.6c-380.9-379-618.2-844.1-706.3-1389.6L2261,908.6l-176.1-7.7c-210.5-9.6-323.5-55.5-447.9-181.8c-111-116.7-164.6-262.2-155-436.4c7.7-168.4,67-289,193.3-403.9c170.4-153.1-95.7-141.6,3324.7-141.6c3420.4,0,3154.4-11.5,3324.7,141.6C8451-6.3,8510.4,114.3,8518,282.7c9.6,174.2-44,319.6-155,436.4c-124.4,126.3-237.4,172.3-447.9,181.8l-176.1,7.7l-21,137.8c-88,545.5-325.4,1010.6-706.3,1389.6c-333,331.1-756.1,578.1-1190.5,698.6c-99.5,28.7-191.4,53.6-202.9,57.4c-19.1,7.7-24.9,206.7-24.9,918.7V5020h-201h-201v-884.3v-886.2H5000h-191.4v886.2V5020h-201h-201V4110.8z M5516.8,2811.2c491.9-112.9,882.4-321.6,1215.4-652.7c313.9-310.1,545.5-759.9,593.4-1148.4l13.4-105.3H5000H2661l13.4,105.3c47.9,388.5,279.5,838.3,593.4,1148.4c367.5,365.6,826.9,595.3,1364.7,679.5C4804.8,2864.8,5350.3,2847.5,5516.8,2811.2z M8045.3,483.7c101.5-55.5,116.8-222,24.9-308.2l-49.8-45.9H5000H1979.6l-49.8,45.9c-90,84.2-78.5,248.8,21.1,306.3C1998.8,508.5,7993.6,510.5,8045.3,483.7z"/><path d="M3330.9-873.4c-162.7-53.6-266.1-176.1-279.4-335c-19.1-243.1,143.6-430.7,375.1-432.6c304.3-1.9,493.8,333.1,335,591.5C3673.6-909.8,3474.5-827.5,3330.9-873.4z"/><path d="M4883.2-881.1c-174.2-65.1-266.1-195.2-266.1-375.2c0-216.3,166.5-384.7,382.8-384.7c292.8,0,476.6,313.9,338.8,576.1C5256.5-909.8,5040.2-823.6,4883.2-881.1z"/><path d="M6450.8-883c-174.2-63.2-266-189.5-266-363.7c0-290.9,285.2-478.5,547.4-357.9c277.5,126.3,294.8,537.9,30.6,687.1C6665.2-861.9,6540.8-848.5,6450.8-883z"/><path d="M2475.4-2475.5c-135.9-68.9-199.1-164.6-208.6-321.6c-5.7-93.8,1.9-134,38.3-202.9c57.4-112.9,176.1-193.3,298.6-206.7c465.1-44,601,610.6,158.9,759.9C2661-2414.2,2586.4-2421.9,2475.4-2475.5z"/><path d="M4044.9-2475.5c-135.9-68.9-199.1-164.6-208.6-321.6c-5.7-93.8,1.9-134,38.3-202.9c84.2-164.6,289-248.8,463.2-191.4c329.2,107.2,356,574.2,42.1,719.7C4253.5-2412.3,4169.3-2414.2,4044.9-2475.5z"/><path d="M5620.2-2471.7c-313.9-145.5-287.1-612.5,42.1-719.7c174.2-57.4,379,26.8,463.2,191.4c36.4,68.9,44,109.1,38.3,202.9c-9.6,157-72.7,252.7-208.6,321.6C5830.7-2414.2,5746.5-2412.3,5620.2-2471.7z"/><path d="M7229.9-2448.7c-285.2-99.5-356-478.5-126.3-671.8c187.6-157,478.5-97.6,591.4,120.6c61.3,118.7,53.6,287.1-19.1,398.1C7584-2464,7383-2395.1,7229.9-2448.7z"/><path d="M1690.6-4045c-147.4-74.6-202.9-166.5-202.9-342.6c0-116.8,7.7-149.3,51.7-214.4c61.2-91.9,218.2-178,325.4-178c283.3,0,472.8,313.9,344.5,566.5C2105.9-4012.5,1895.4-3943.6,1690.6-4045z"/><path d="M3263.9-4041.2c-135.9-65.1-202.9-166.5-212.5-325.4c-7.7-147.4,45.9-262.2,166.5-346.4c70.8-49.8,97.6-57.4,212.5-57.4s141.6,7.7,214.4,57.4c300.5,212.5,185.7,677.6-178,710.1C3382.6-3995.2,3344.3-4002.9,3263.9-4041.2z"/><path d="M4875.6-4018.2c-298.6-105.3-352.2-513-90-694.8c72.7-49.8,99.5-57.4,214.4-57.4c114.8,0,141.6,7.7,214.4,57.4c155,109.1,212.5,323.5,132.1,499.6C5269.9-4045,5053.6-3957,4875.6-4018.2z"/><path d="M6448.9-4014.4c-155-45.9-264.1-202.9-264.1-375.1c0-132.1,59.3-243.1,170.3-323.5c72.8-49.8,99.5-57.4,214.4-57.4s141.7,7.7,212.5,57.4c176.1,124.4,223.9,367.5,105.3,545.5C6799.2-4033.5,6607.8-3966.5,6448.9-4014.4z"/><path d="M7999.3-4024c-325.4-114.8-331.1-591.4-9.6-727.3c103.3-42.1,204.8-36.4,319.6,21.1c147.4,74.6,202.9,166.5,202.9,342.6s-55.5,268-202.9,342.6C8196.5-3989.5,8110.3-3983.8,7999.3-4024z"/></g></g>
</svg>