<?xml version="1.0" encoding="utf-8"?>
<!-- Svg Vector Icons : http://www.onlinewebfonts.com/icon -->
<!DOCTYPE svg PUBLIC "-//W3C//DTD SVG 1.1//EN" "http://www.w3.org/Graphics/SVG/1.1/DTD/svg11.dtd">
<svg version="1.1" xmlns="http://www.w3.org/2000/svg" xmlns:xlink="http://www.w3.org/1999/xlink" x="0px" y="0px" viewBox="0 0 1000 1000" enable-background="new 0 0 1000 1000" xml:space="preserve">
<metadata> Svg Vector Icons : http://www.onlinewebfonts.com/icon </metadata>
<g><g transform="translate(0.000000,349.000000) scale(0.100000,-0.100000)"><path d="M4355.6,1815.6c-88.2-24.9-128.5-80.5-128.5-180.3c0-157.3,84.4-201.4,379.7-201.4h201.4v-95.9v-95.9H5000h191.8v94v94l237.8,5.8c220.6,7.7,241.6,11.5,287.7,53.7c63.3,59.5,78.6,134.2,42.2,220.5c-49.9,120.8-84.4,126.6-753.7,124.7C4681.6,1834.8,4388.2,1825.2,4355.6,1815.6z"/><path d="M4693.1,1031.2c-558.1-38.4-1108.5-189.9-1620.5-444.9C2639.2,367.6,2324.7,139.4,1958.4-225c-377.8-375.9-638.6-738.4-853.4-1189c-262.7-548.5-397-1106.6-425.8-1754.8l-3.8-105.5l-163-9.6c-197.5-11.5-281.9-55.6-360.5-187.9l-51.8-90.1v-498.6c0-467.9,1.9-502.5,40.3-575.4c49.9-94,168.8-182.2,278.1-203.3c109.3-21.1,9054-21.1,9163.3,0c109.3,21.1,228.2,109.3,278.1,203.3c38.3,72.9,40.3,107.4,40.3,575.4v498.6l-51.8,90.1c-78.6,132.3-163,176.4-360.5,187.9l-163,9.6l-3.8,105.5c-42.2,953.2-326,1758.6-880.3,2497C8266-439.8,7853.7-21.7,7637,143.3C6774,795.3,5757.5,1102.2,4693.1,1031.2z M5412.3,628.5c932.1-105.5,1768.2-515.9,2414.5-1189c629-657.8,995.3-1455.6,1083.6-2366.6c11.5-115.1,21.1-243.6,21.1-283.8v-72.9H5000H1068.5v72.9c0,40.3,9.6,168.8,21.1,283.8c88.2,911,454.5,1708.8,1083.6,2366.6C2809.9,103,3653.7,521.1,4558.9,626.5C4764.1,649.6,5209,651.5,5412.3,628.5z M9516.4-4060.6v-383.6H5000H483.6l-5.7,364.4c-1.9,199.4,0,374,3.8,387.4c7.7,21.1,864.9,24.9,4522.2,21.1l4512.6-5.8V-4060.6z"/></g></g>
</svg>