<?xml version="1.0" encoding="utf-8"?>
<!-- Svg Vector Icons : http://www.onlinewebfonts.com/icon -->
<!DOCTYPE svg PUBLIC "-//W3C//DTD SVG 1.1//EN" "http://www.w3.org/Graphics/SVG/1.1/DTD/svg11.dtd">
<svg version="1.1" xmlns="http://www.w3.org/2000/svg" xmlns:xlink="http://www.w3.org/1999/xlink" x="0px" y="0px" viewBox="0 0 1000 1000" enable-background="new 0 0 1000 1000" xml:space="preserve">
<metadata> Svg Vector Icons : http://www.onlinewebfonts.com/icon </metadata>
<g><g transform="translate(0.000000,512.000000) scale(0.100000,-0.100000)"><path d="M9022.7,5006.8c-78.6-24.9-161-72.8-205-120.7c-23-23-415.8-749.2-875.6-1613.3c-457.9-862.2-841.1-1576.9-848.8-1584.6c-9.6-9.6-99.6,3.8-205,30.7c-222.3,57.5-488.6,63.2-682.1,17.2c-394.7-92-747.3-415.8-933.1-856.5c-90.1-212.7-233.8-496.3-321.9-636.1c-310.4-488.6-770.3-935-1262.7-1226.3c-609.3-360.2-1337.4-580.6-2040.6-617c-210.8-11.5-241.4-17.2-289.3-57.5c-65.2-53.6-86.2-132.2-57.5-205c28.7-76.7,279.7-367.9,557.6-645.7c944.6-946.5,2180.5-1651.7,3554.3-2029.1c502-138,1299.1-270.2,1452.4-241.4c88.1,17.2,264.4,149.5,507.8,385.1c599.7,578.7,1134.3,1400.6,1542.4,2370.2c115,275.9,410,1128.6,484.8,1404.5c47.9,176.3,44.1,500.1-9.6,685.9c-99.6,350.6-320,647.6-609.3,823.9c-55.6,32.6-103.5,67.1-103.5,74.7s272.1,766.4,605.5,1686.1c333.4,919.7,611.2,1713,615.1,1762.8c17.2,160.9-101.5,352.5-300.8,479C9432.7,4999.1,9170.2,5050.9,9022.7,5006.8z M9381,4564.2c61.3-36.4,105.4-74.7,111.1-101.5c7.7-30.7-174.4-557.6-565.2-1644c-318.1-879.5-588.2-1621-601.7-1647.8l-21.1-49.8l-415.8,185.9c-229.9,101.5-421.5,189.7-427.3,195.4c-5.7,5.7,362.1,708.9,816.2,1565.4l825.8,1553.9h90.1C9256.5,4621.7,9310.1,4604.4,9381,4564.2z M6861.4,1318.4c187.8-59.4,1624.8-703.2,1741.7-779.8c262.5-168.6,438.8-503.9,438.8-831.6c0-116.9-23-270.2-42.2-287.4c-13.4-11.5-281.7,32.6-400.4,69c-159.1,46-270.2,126.4-343,245.3c-69,111.1-99.6,122.6-302.7,105.4c-120.7-9.6-166.7-5.7-258.7,26.8C7541.6-78.5,7411.3,21.2,7350,134.2c-63.2,116.9-116.9,141.8-268.3,126.5c-97.7-9.6-143.7-1.9-258.7,36.4c-201.2,69-344.9,161-404.3,256.8c-55.6,92-97.7,113-258.7,128.4c-115,9.6-300.8,88.1-390.9,164.8c-61.3,49.8-46,90.1,95.8,239.5c203.1,218.4,413.9,304.7,699.4,287.4C6654.4,1368.2,6782.8,1345.2,6861.4,1318.4z M5798,377.6c53.6-24.9,149.5-55.6,210.8-69c70.9-15.3,122.6-40.2,145.6-69c122.6-153.3,592.1-369.8,804.7-369.8c59.4,0,86.2-13.4,153.3-82.4c44.1-46,111.1-105.4,147.5-132.2c164.8-124.5,444.5-226.1,630.4-226.1c72.8,0,95.8-11.5,187.8-95.8c57.5-51.7,157.1-120.7,222.3-151.4c126.5-59.4,406.2-136.1,496.3-136.1c30.6,0,59.4-11.5,65.1-24.9c3.8-13.4-28.7-132.2-72.8-262.5l-82.4-239.5l-115,3.8c-277.8,9.6-475.2,93.9-636.1,270.2l-118.8,128.4h-216.5c-206.9,0-224.2,3.8-343,61.3c-122.6,61.3-285.5,206.9-285.5,258.7c-1.9,32.6-59.4,99.6-109.2,126.5c-26.8,15.3-99.6,19.2-210.8,11.5c-143.7-9.6-183.9-5.8-277.8,28.7c-157.1,61.3-272.1,155.2-323.8,270.2c-61.3,138-107.3,161-275.9,145.6c-170.5-15.4-308.5,28.7-431.1,137.9l-78.6,70.9l82.4,145.6c46,78.6,103.5,187.8,128.4,243.3l46,97.7l78.5-47.9C5663.8,444.6,5742.4,402.5,5798,377.6z M5131.2-356.3c168.6-130.3,375.6-214.6,532.7-214.6c84.3,0,95.8-5.7,137.9-67.1c136.1-201.2,526.9-390.9,799-392.8c72.8,0,92-11.5,210.8-130.3c201.2-199.3,431.1-298.9,726.2-318.1c116.9-7.7,132.2-13.4,222.3-95.8c153.3-138,429.2-252.9,693.6-289.3c82.4-11.5,90.1-15.3,80.5-53.6c-21.1-69-306.6-651.5-413.9-843.1c-136.1-241.4-427.3-678.3-584.4-875.7c-164.8-205-517.3-569.1-655.3-674.5l-103.5-80.5l-262.5,32.6c-251,32.6-728.1,120.7-747.3,139.9c-5.8,3.8,11.5,23,38.3,40.2c24.9,17.2,130.3,115,235.7,214.6c302.7,295.1,624.6,745.3,892.9,1255l120.7,228L6731.1-2807c-442.6-446.4-787.5-697.4-1232.1-894.8c-300.8-136-653.4-235.7-735.8-210.8c-155.2,46-770.3,327.7-965.7,442.6l-82.4,47.9l101.5,74.7c145.6,111.2,402.4,367.9,540.3,544.2c120.7,155.2,325.7,469.4,306.6,469.4c-7.7,0-61.3-32.6-120.7-72.8c-275.9-187.8-682.1-375.6-1140.1-532.7l-304.7-103.5l-145.6,109.2c-258.7,189.7-580.6,467.5-827.7,712.8l-239.5,239.5l229.9,34.5c772.2,115,1500.3,410,2117.3,854.6c208.8,151.4,622.7,540.3,743.4,697.5c38.3,51.7,72.8,92,76.6,92C5056.4-302.6,5092.8-327.5,5131.2-356.3z"/><path d="M672.5,3422.2c-480.9-128.4-716.6-678.3-479-1122.8c153.3-285.5,492.4-456,804.8-400.5c434.9,76.6,724.3,479,649.5,898.6C1565.3,3259.3,1120.8,3542.9,672.5,3422.2z M1026.9,3029.4c67.1-21.1,187.8-143.7,216.5-220.3c11.5-26.8,19.2-92,19.2-143.7c0-212.7-168.6-381.3-383.2-381.3s-383.2,168.6-383.2,383.2c0,122.6,34.5,203.1,120.7,285.5C726.1,3056.2,856.4,3079.2,1026.9,3029.4z"/><path d="M2479.3,2822.5c-139.9-65.1-220.3-195.4-220.3-358.3c0-300.8,352.5-482.9,605.5-310.4c243.3,166.7,210.8,548-61.3,676.4C2720.7,2868.5,2573.2,2866.5,2479.3,2822.5z"/><path d="M2230.2,1485c-124.5-13.4-298.9-72.8-427.3-147.5c-503.9-297-674.5-944.6-383.2-1462c82.4-145.6,277.8-337.2,415.8-406.2c193.5-97.7,302.8-124.6,509.7-124.6c228,0,367.9,36.4,546.1,141.8c492.4,289.3,672.5,906.3,417.7,1417.9c-82.4,161-297,379.4-450.3,456C2665.2,1458.2,2431.4,1504.2,2230.2,1485z M2540.6,1067.3c203.1-59.4,392.8-241.4,457.9-435c42.2-130.3,38.3-329.6-13.4-467.5c-30.6-84.3-70.9-141.8-159-229.9c-149.4-145.6-275.9-199.3-477.1-199.3c-448.4,1.9-768.4,410-657.2,841.2C1789.5,956.2,2170.8,1176.6,2540.6,1067.3z"/></g></g>
</svg>