<?xml version="1.0" encoding="utf-8"?>
<!-- Svg Vector Icons : http://www.onlinewebfonts.com/icon -->
<!DOCTYPE svg PUBLIC "-//W3C//DTD SVG 1.1//EN" "http://www.w3.org/Graphics/SVG/1.1/DTD/svg11.dtd">
<svg version="1.1" xmlns="http://www.w3.org/2000/svg" xmlns:xlink="http://www.w3.org/1999/xlink" x="0px" y="0px" viewBox="0 0 1000 1000" enable-background="new 0 0 1000 1000" xml:space="preserve">
<metadata> Svg Vector Icons : http://www.onlinewebfonts.com/icon </metadata>
<g><g transform="translate(0.000000,410.000000) scale(0.100000,-0.100000)"><path d="M4933.8,3549c-89.3-28.3-2732.6-1798.5-2787.1-1868.2c-41.4-52.3-45.7-78.4-37-191.6c6.5-71.9,26.1-174.2,47.9-228.6c19.6-54.4,37-108.9,39.2-124.1c2.2-13.1-442-328.8-986.3-701.1C666.1,60.8,193.6-270.1,161-300.6c-52.3-47.9-61-76.2-61-169.8c0-457.3,450.7-860.1,960.2-860.1h150.2v-2014.1v-2014.1H5108h3897.5V-3349v2009.7l128.5,26.1c254.7,52.3,487.7,204.7,616.2,400.6C9891.7-696.9,9943.9-416,9859-318c-19.6,24-496.4,357.1-1056,738.1c-794.7,542.2-1014.7,703.3-1003.8,729.4c93.7,222.1,119.8,413.7,65.3,511.7c-28.3,50.1-383.2,296.1-1402.2,975.5c-751.2,498.6-1389.2,912.3-1419.7,918.9C5012.2,3562.1,4964.3,3557.7,4933.8,3549z M6222.8,2257.8c668.5-444.2,1215-814.3,1215-823c0-52.3-141.5-222.1-222.1-265.6c-113.2-58.8-300.5-63.1-400.6-10.9c-102.3,52.3-224.3,204.7-237.3,296.1c-39.2,248.2-91.5,317.9-239.5,317.9c-117.6,0-200.3-69.7-217.7-182.9c-26.1-159-58.8-243.9-124.1-320.1c-254.8-291.8-712-143.7-766.4,246c-30.5,224.3-180.7,326.6-339.7,230.8c-71.9-41.4-104.5-106.7-124.1-235.2c-50.1-374.5-498.6-529.1-749-256.9c-80.6,84.9-106.7,141.5-128.5,283.1c-24,141.5-82.7,217.7-182.9,237.3c-141.5,26.1-274.4-93.6-274.4-246c0-95.8-28.3-163.3-111-254.8c-95.8-108.9-182.9-150.2-324.4-152.4c-163.3,0-287.4,67.5-372.3,200.3c-34.8,54.4-61,108.9-58.8,117.6c6.5,17.4,2414.7,1628.7,2434.3,1628.7C5005.6,3067.8,5556.5,2704.2,6222.8,2257.8z M3736.2,901.3c74-78.4,209-152.4,357.1-196c270-78.4,583.5-10.9,812.2,176.4l93.6,76.2l93.6-76.2c346.2-283.1,851.4-276.5,1162.7,15.2l69.7,65.3l115.4-87.1C6503.7,827.3,6577.7,775,6606,762c187.3-98,481.2-115.4,679.3-43.5c65.3,24,135,47.9,156.8,54.4c21.8,8.7,372.3-217.7,1014.7-655.4c757.7-516,977.7-677.2,968.9-705.5c-78.4-219.9-428.9-357.1-707.6-276.5c-156.8,45.7-313.5,180.7-344,298.3c-10.9,45.7-32.7,124.1-45.7,172c-24,95.8-117.6,174.2-206.8,174.2c-80.6,0-191.6-91.5-211.2-174.2c-50.1-204.7-63.2-241.7-117.6-304.8c-98-117.6-254.8-182.9-442-182.9c-335.3-2.2-522.6,150.2-574.8,468.1c-39.2,228.6-365.8,248.2-424.6,26.1c-10.9-45.7-30.5-124.1-43.5-172C6255.5-760,5978.9-914.6,5722-888.5c-150.2,15.2-337.5,106.7-407.2,198.1c-28.3,37-67.5,132.8-84.9,209C5188.5-305,5121-230.9,4999.1-230.9c-121.9,0-191.6-76.2-233-252.6c-39.2-176.4-106.7-261.3-254.7-335.3c-243.9-119.8-518.2-87.1-701.1,80.6c-61,56.6-102.3,117.6-117.6,172c-10.9,47.9-32.7,124.1-43.5,172c-26.1,93.6-82.7,143.7-187.3,165.5c-89.3,17.4-209-65.3-233-165.5c-50.1-206.9-65.3-246-124.1-313.5c-156.8-176.4-505.2-233-731.6-115.4c-61,30.5-137.2,87.1-167.7,124.1c-54.4,63.1-67.5,100.2-117.6,304.8c-23.9,100.2-143.7,182.9-233,165.5c-106.7-21.8-161.1-71.9-187.3-169.8c-13.1-52.3-34.8-130.6-45.7-174.2c-47.9-185.1-335.3-339.7-581.4-315.7c-211.2,21.8-439.8,169.8-466,302.7c-8.7,52.3,1883.4,1356.5,1964,1352.1c30.5,0,108.9-21.8,174.2-47.9c200.3-74,489.9-54.4,688.1,47.9c34.8,17.4,106.7,67.5,161.1,111c54.4,43.5,104.5,78.4,111,78.4C3679.6,955.7,3707.9,931.8,3736.2,901.3z M2168.5-1221.7c148.1-76.2,298.3-108.9,489.9-108.9c276.5,0,487.7,74,685.9,239.5l98,80.6l93.6-80.6c191.6-172,450.7-250.4,757.7-235.2c235.2,13.1,389.8,69.7,574.8,204.7l130.6,95.8l130.6-95.8c182.9-135,341.9-191.6,572.7-204.7l189.4-8.7v-1336.9v-1336.9h1339.1H8570v-446.4v-446.4H5108h-3462V-3055v1844.2l113.2,100.2l115.4,100.2l98-80.6C2027-1136.7,2114.1-1195.5,2168.5-1221.7z M6849.9-1221.7c148.1-76.2,298.3-108.9,489.9-108.9c276.5,0,487.7,74,685.9,239.5l98,80.6l93.6-82.7c52.3-43.6,152.4-108.9,222.1-141.5l130.6-61v-1138.8v-1138.8l-1114.8,4.4l-1117,6.5l-6.5,1175.8l-4.4,1175.8l113.2,100.2l115.4,100.2l98-80.6C6708.4-1136.7,6795.4-1195.5,6849.9-1221.7z"/><path d="M2538.7-2571.6v-1001.6l1008.1,4.4l1006,6.5l6.5,997.2l4.4,995.1H3551.1H2538.7V-2571.6z M4106.4-2560.7V-3116h-555.2h-555.2v555.2v555.2h555.2h555.2V-2560.7z"/></g></g>
</svg>