<?xml version="1.0" encoding="utf-8"?>
<!-- Svg Vector Icons : http://www.onlinewebfonts.com/icon -->
<!DOCTYPE svg PUBLIC "-//W3C//DTD SVG 1.1//EN" "http://www.w3.org/Graphics/SVG/1.1/DTD/svg11.dtd">
<svg version="1.1" xmlns="http://www.w3.org/2000/svg" xmlns:xlink="http://www.w3.org/1999/xlink" x="0px" y="0px" viewBox="0 0 1000 1000" enable-background="new 0 0 1000 1000" xml:space="preserve">
<metadata> Svg Vector Icons : http://www.onlinewebfonts.com/icon </metadata>
<g><g transform="translate(0.000000,512.000000) scale(0.100000,-0.100000)"><path d="M4856.3,5016c-199.2-30.6-402.3-136-549.8-285.4c-289.3-287.4-365.9-749-187.7-1107.3c69-139.9,185.8-266.3,425.3-463.6c122.6-101.5,231.8-208.8,245.2-237.5c11.5-28.7,19.2-116.9,15.3-193.5l-5.7-141.8L2787.4,1380C1680.1,715.3,710.8,129.1,634.1,75.4C178.2-231.1,7.7-625.7,147.6-1054.8c40.2-124.5,114.9-231.8,235.6-341c199.2-180.1,411.9-243.3,819.9-243.3h272v189.6v187.8l-273.9,11.5c-319.9,11.5-442.5,44.1-551.7,141.8C540.3-1010.8,498.1-916.9,498.1-779c0,195.4,67.1,310.3,275.9,469.3c74.7,57.5,1055.6,655.2,2182,1331.4l2044,1226l2046-1226C8170.5,345.5,9151.3-252.1,9226-309.6c208.8-159,275.9-273.9,275.9-469.3c0-137.9-42.1-231.8-151.3-329.5c-109.2-97.7-231.8-130.3-551.7-141.8l-273.9-11.5v-187.8v-189.6h273.9c406.1,0,618.8,63.2,818,243.3c120.7,109.2,195.4,216.5,235.6,341c139.8,429.1-30.6,823.7-486.6,1130.3c-76.6,53.6-1046,639.8-2153.2,1304.6L5201.1,2586.9l-9.6,220.3c-13.4,304.6-51.7,369.7-354.4,616.9c-354.4,291.2-417.6,385-417.6,620.7c1.9,226,118.8,421.4,321.8,528.7c63.2,34.5,109.2,42.1,258.6,42.1c206.9,0,279.7-26.8,409.9-155.2c78.6-76.6,164.8-237.5,164.8-310.3c0-95.8,44.1-216.5,93.9-254.8c63.2-49.8,197.3-40.2,256.7,17.2c51.7,53.6,63.2,193.5,24.9,356.3c-76.6,329.5-314.2,592-637.9,703.1C5205,5008.3,4963.6,5031.3,4856.3,5016z"/><path d="M2350.6-279c-197.3-34.5-402.3-208.8-459.8-392.7c-17.3-59.4-23-498.1-23-1867.8v-1791.2l46-99.6c57.5-130.3,195.4-256.7,333.3-310.3l111.1-40.2H5000h2641.7l111.1,40.2c137.9,53.7,275.8,180.1,333.3,310.3l46,99.6v1791.2c0,1369.7-5.7,1808.4-23,1867.8C8067-537.6,7954-411.2,7808.4-336.4l-132.2,67l-2616.8,1.9C3620.7-265.5,2400.4-271.3,2350.6-279z M7643.7-690.8c30.6-15.3,65.1-46,76.6-65.1c13.4-24.9,19.2-618.8,19.2-1770.1c0-1716.5,0-1733.7-38.3-1781.6c-23-28.7-72.8-59.4-111.1-70.9c-97.7-26.8-5082.3-26.8-5180,0c-38.3,11.5-88.1,42.1-111.1,70.9c-38.3,47.9-38.3,65.1-38.3,1781.6c0,1147.5,5.7,1745.2,19.2,1768.2c51.7,97.7-69,93.9,2716.4,95.8C7272-662.1,7595.8-665.9,7643.7-690.8z"/></g></g>
</svg>