<?xml version="1.0" encoding="utf-8"?>
<!-- Svg Vector Icons : http://www.onlinewebfonts.com/icon -->
<!DOCTYPE svg PUBLIC "-//W3C//DTD SVG 1.1//EN" "http://www.w3.org/Graphics/SVG/1.1/DTD/svg11.dtd">
<svg version="1.1" xmlns="http://www.w3.org/2000/svg" xmlns:xlink="http://www.w3.org/1999/xlink" x="0px" y="0px" viewBox="0 0 1000 1000" enable-background="new 0 0 1000 1000" xml:space="preserve">
<metadata> Svg Vector Icons : http://www.onlinewebfonts.com/icon </metadata>
<g><g transform="translate(0.000000,492.000000) scale(0.100000,-0.100000)"><path d="M100,2178.6v-2450h296.7h296.7V-2530v-2258.6H5000h4306.6V-2530v2258.6h296.7H9900v2450v2450H5000H100V2178.6z M9513.4,2174.8L9507.6,121H8188.8H6868.1l-928.3,1449c-513,796.2-934.1,1448.9-939.8,1448.9s-426.8-652.7-939.8-1448.9L3131.9,121H1811.2H492.4l-5.7,2053.8l-3.8,2051.9H5000h4517.2L9513.4,2174.8z M5832.6,1011l821.1-1282.4h1135h1135V-2329v-2057.6H7545.7H6167.6v1125.5c0,1261.4-1.9,1280.5-132.1,1546.6c-132.1,266.1-379,480.4-677.6,585.7c-97.6,36.4-160.8,42.1-357.9,42.1c-197.1,0-260.3-5.8-357.9-42.1c-298.6-105.3-545.5-319.6-677.6-585.7c-130.2-266-132.1-285.2-132.1-1546.6v-1125.5H2454.3H1076.2V-2329v2057.6h1135h1135L4167.4,1011c453.6,704.4,826.9,1280.5,832.6,1280.5S5379,1715.4,5832.6,1011z M5335-1523.2c246.9-118.7,415.4-350.3,451.7-616.3c7.7-72.8,15.3-608.7,17.2-1188.6v-1058.5H5000h-803.9v1058.5c1.9,580,9.6,1115.9,17.2,1188.6c42.1,323.5,308.2,614.4,622.1,681.4C4984.7-1425.6,5187.6-1452.4,5335-1523.2z"/><path d="M1860.9-2233.3v-1177.1h784.8h784.8v1177.1v1177.1h-784.8h-784.8V-2233.3z M3043.8-2237.1l-5.7-780.9l-386.6-5.7l-388.5-3.8v784.8v784.8h392.4h392.4L3043.8-2237.1z"/><path d="M6569.5-2233.3v-1177.1h784.8h784.8v1177.1v1177.1h-784.8h-784.8V-2233.3z M7737.1-2242.9v-784.8l-386.6,3.8l-388.6,5.7l-5.7,780.9l-3.8,779h392.4h392.4V-2242.9z"/></g></g>
</svg>