<?xml version="1.0" encoding="utf-8"?>
<!-- Svg Vector Icons : http://www.onlinewebfonts.com/icon -->
<!DOCTYPE svg PUBLIC "-//W3C//DTD SVG 1.1//EN" "http://www.w3.org/Graphics/SVG/1.1/DTD/svg11.dtd">
<svg version="1.1" xmlns="http://www.w3.org/2000/svg" xmlns:xlink="http://www.w3.org/1999/xlink" x="0px" y="0px" viewBox="0 0 1000 1000" enable-background="new 0 0 1000 1000" xml:space="preserve">
<metadata> Svg Vector Icons : http://www.onlinewebfonts.com/icon </metadata>
<g><g transform="translate(0.000000,512.000000) scale(0.100000,-0.100000)"><path d="M2356,5004.2c-101.5-28.7-114.9-74.7-204.9-712.2c-153.2-1093.2-277.6-2129-281.4-2333.8c-1.9-187.6,1.9-210.6,57.4-340.8c82.3-191.5,269.9-467.2,513.1-750.5l202.9-239.3l-11.5-201c-38.3-706.5-183.8-4415-174.2-4508.8c23-241.2,197.2-471,438.4-583.9c532.3-248.9,1236.8-70.8,1443.6,361.9c34.5,76.6,51.7,147.4,57.4,258.5c7.7,128.3-141.7,3984.2-174.2,4510.7l-11.5,162.7l145.5,172.3c354.2,419.3,539.9,702.6,605,915.2c32.5,111,36.4,158.9,26.8,306.3c-32.5,427-342.7,2779.9-379.1,2873.8c-11.5,28.7-47.9,70.8-80.4,90c-55.5,34.5-113,36.4-1093.2,34.5C2867.2,5017.6,2380.9,5011.8,2356,5004.2z M2836.5,3332.8c5.7-1231.1,7.7-1311.5,40.2-1359.3c82.3-120.6,273.8-103.4,329.3,30.6c24.9,57.4,28.7,268,28.7,1351.7v1282.8h191.5h189.5l5.7-1305.7c5.7-1231.1,7.7-1311.5,40.2-1359.3c82.3-120.6,273.8-103.4,329.3,30.6c24.9,57.4,28.7,268,28.7,1351.7v1282.8h114.9c74.7,0,118.7-7.7,124.4-23c30.6-84.2,314-2312.8,329.3-2584.7l11.5-202.9l-72.7-132.1c-99.6-180-204.9-325.5-459.5-629.9c-122.5-143.6-225.9-285.3-233.6-312.1c-7.7-26.8,30.6-1112.4,84.2-2410.4c70.8-1705.9,93.8-2379.8,78.5-2431.5c-45.9-174.2-229.7-275.7-524.6-287.2c-348.4-13.4-572.5,95.7-618.4,304.4c-7.7,36.4,30.6,1125.8,84.2,2420c53.6,1296.2,91.9,2377.9,84.2,2408.5c-7.7,28.7-93.8,141.7-189.5,252.7c-248.9,285.3-430.8,534.2-511.2,693.1c-68.9,139.8-68.9,139.8-57.4,325.5c15.3,260.4,302.5,2500.4,329.3,2586.6c5.7,15.3,47.9,23,122.5,23h114.9L2836.5,3332.8z"/><path d="M6361.2,4985c-178-61.3-275.7-162.7-344.6-358c-30.6-88.1-34.5-386.7-40.2-4363.3c-1.9-2678.5,1.9-4313.5,13.4-4390.1c38.3-250.8,164.6-432.7,373.3-538c386.7-197.2,917.1-135.9,1171.7,135.9c47.9,51.7,109.1,141.7,137.8,202.9c49.8,103.4,51.7,126.4,57.4,459.5c11.5,614.6-53.6,1280.8-235.5,2397c-107.2,656.7-143.6,953.4-143.6,1148.7c0,101.5,15.3,141.7,202.9,516.9c338.9,679.7,463.3,1074.1,534.2,1703.9c86.2,769.7,45.9,1194.7-162.7,1728.8c-243.2,626.1-786.9,1236.8-1208.1,1361.3C6587.2,5031,6485.7,5029.1,6361.2,4985z M6726.9,4560c155.1-97.6,256.5-191.5,411.6-373.3c247-296.8,432.7-650.9,534.2-1022.4c47.9-172.3,49.8-204.9,49.8-641.4c0-507.4-24.9-735.2-120.6-1131.5c-88.1-354.2-158.9-538-394.4-1012.8C7069.6,101,6983.5-98.1,6972-161.3c-19.1-107.2-1.9-488.2,34.5-742.8c11.5-84.2,63.2-407.8,114.9-717.9c143.6-871.1,195.3-1347.9,220.2-2069.6c15.3-400.1,1.9-472.9-107.2-576.3c-91.9-88.1-220.2-118.7-442.3-107.2c-206.8,9.6-312.1,63.2-373.3,187.6l-44,84.2V168c0,2879.5,5.7,4292.4,19.1,4340.3c24.9,86.2,59.4,109.1,164.7,111C6612,4619.4,6663.7,4602.1,6726.9,4560z"/></g></g>
</svg>