<?xml version="1.0" encoding="utf-8"?>
<!-- Svg Vector Icons : http://www.onlinewebfonts.com/icon -->
<!DOCTYPE svg PUBLIC "-//W3C//DTD SVG 1.1//EN" "http://www.w3.org/Graphics/SVG/1.1/DTD/svg11.dtd">
<svg version="1.1" xmlns="http://www.w3.org/2000/svg" xmlns:xlink="http://www.w3.org/1999/xlink" x="0px" y="0px" viewBox="0 0 1000 1000" enable-background="new 0 0 1000 1000" xml:space="preserve">
<metadata> Svg Vector Icons : http://www.onlinewebfonts.com/icon </metadata>
<g><g transform="translate(0.000000,512.000000) scale(0.100000,-0.100000)"><path fill="#76D7C4" d="M4812.7,4996.4C4732.3,4975.3,940.3,3017,490,2764.1c-128.4-72.8-266.3-222.3-329.6-358.3l-51.7-109.2l-5.7-3293.8c-5.8-3765.2-21.1-3427.9,166.7-3615.7c189.7-187.8-295.1-170.5,4734.7-170.5c3885.9,0,4432,3.8,4516.3,28.7c122.6,36.4,266.3,162.9,331.5,289.3l47.9,93.9v3334v3334l-61.3,126.5c-122.6,247.2-46,201.2-2402.8,1431.3c-1366.2,710.9-2180.5,1124.8-2251.4,1143.9C5048.4,5032.8,4950.7,5032.8,4812.7,4996.4z M7236.6,3515.2C8395.9,2909.7,9369.2,2394.3,9398,2365.5c128.4-118.8,118.8,176.3,118.8-3406.9v-3244l-53.6-51.7l-51.7-53.6l-335.3-5.8l-335.3-7.7l3.8,1577l5.7,1577l84.3,17.2c109.2,21.1,239.5,149.5,270.2,264.4c13.4,49.8,19.2,187.8,15.3,352.5c-5.8,258.7-7.7,274-59.4,350.7c-28.7,44.1-88.2,103.5-132.2,132.2c-76.7,51.7-88.1,53.7-389,59.4L8229.1-66l-438.8,787.5c-494.4,891-549.9,963.8-802.9,1088.4l-134.1,65.1h-1849h-1849l-134.1-65.1c-252.9-124.6-308.5-197.4-802.8-1088.4L1779.5-66l-310.4-7.7c-300.8-5.7-312.3-7.7-389-59.4c-44.1-28.7-103.5-88.1-132.2-132.2c-51.7-76.7-53.6-92-59.4-350.7c-3.8-164.8,1.9-302.7,15.3-352.5c30.7-115,161-243.3,270.2-264.4l84.3-17.2l5.7-1577l3.8-1577l-335.3,7.7l-335.3,5.8l-51.7,53.6l-53.6,51.7v3244c0,3583.1-9.6,3288.1,118.8,3406.9c42.1,40.2,3931.9,2084.7,4228.9,2224.6c55.6,24.9,109.2,34.5,184,28.7C5121.2,4613.1,5295.6,4526.9,7236.6,3515.2z M6818.9,1457.3c151.4-82.4,189.7-139.9,689.8-1038.5l494.4-889.1l364.1-5.8l364.1-5.7v-182v-182l-224.2-5.7c-260.6-5.7-247.2,9.6-197.4-214.6c23-101.6,26.8-410,28.7-1718.8v-1596.1h-392.8h-392.8v383.2v383.2H5004.3H2455.9v-383.2v-383.2h-392.8h-392.8V-2785c1.9,1308.7,5.7,1617.2,28.7,1718.8c49.8,224.2,63.2,208.9-195.4,214.6l-226.1,5.7v182v182l364.1,5.7l364.1,5.8l492.4,885.2c272.1,488.6,517.4,908.2,546.1,935.1c178.2,160.9,42.1,151.4,1988.9,145.6C6640.7,1491.8,6761.4,1489.9,6818.9,1457.3z M7165.7-4193.3l-5.8-197.4H5004.3H2848.7l-5.7,197.4l-5.8,195.4h2167.1h2167.1L7165.7-4193.3z"/><path d="M3461.9,1074.1c-174.4-69-201.2-101.6-607.4-751.1c-433-691.7-609.3-1023.2-609.3-1151.6c0-103.5,36.4-176.3,99.6-197.4c84.3-28.8,5236.7-28.8,5319.1,0c70.9,24.9,109.2,116.9,93.9,229.9c-19.2,151.4-249.1,561.4-756.9,1362.4c-231.9,364.1-285.5,429.2-400.5,486.7c-69,34.5-141.8,36.4-1577,40.2C3902.6,1095.1,3504,1091.3,3461.9,1074.1z M6458.7,664c57.5-59.4,471.4-710.9,686-1078.8l138-239.5L6144.4-660c-626.6-1.9-1653.6-1.9-2280.2,0l-1138.2,5.7l138,239.5C3078.6-46.9,3492.5,604.6,3550,664l51.7,51.7h1402.6h1402.6L6458.7,664z"/><path d="M2705-1660.2c-406.2-69-695.5-475.2-630.4-885.3c72.8-461.8,540.3-764.5,977.2-636.2c155.2,46,235.7,92,344.9,203.1c300.8,300.8,306.6,791.3,9.6,1092.2c-115,115-239.5,183.9-394.7,218.4C2875.5-1639.1,2835.3-1637.2,2705-1660.2z M3063.3-2106.7c310.4-214.6,162.9-705.1-210.8-705.1c-412,0-548,532.7-185.9,726.2C2785.5-2022.4,2954.1-2031.9,3063.3-2106.7z"/><path d="M6987.5-1667.9c-231.8-53.7-433-216.5-534.6-433.1c-78.6-170.5-93.9-415.8-32.6-576.7c116.9-308.5,367.9-502,684-528.9c352.6-30.7,701.3,205,804.8,544.2c38.3,120.7,38.3,337.2,1.9,461.8c-65.2,218.4-279.8,440.7-488.6,509.7C7288.3-1646.8,7117.8-1639.1,6987.5-1667.9z M7343.9-2087.5c214.6-115,274-404.3,118.8-590.2c-120.7-143.7-341.1-178.2-502-80.5c-262.5,162.9-235.7,563.3,46,687.9C7098.6-2030,7248.1-2037.7,7343.9-2087.5z"/></g></g>
</svg>