<?xml version="1.0" encoding="utf-8"?>
<!-- Svg Vector Icons : http://www.onlinewebfonts.com/icon -->
<!DOCTYPE svg PUBLIC "-//W3C//DTD SVG 1.1//EN" "http://www.w3.org/Graphics/SVG/1.1/DTD/svg11.dtd">
<svg version="1.1" xmlns="http://www.w3.org/2000/svg" xmlns:xlink="http://www.w3.org/1999/xlink" x="0px" y="0px" viewBox="0 0 1000 1000" enable-background="new 0 0 1000 1000" xml:space="preserve">
<metadata> Svg Vector Icons : http://www.onlinewebfonts.com/icon </metadata>
<g><g transform="translate(0.000000,512.000000) scale(0.100000,-0.100000)"><path d="M2571.4,3648.6C1274.3,2888.8,186.3,2247.9,155.6,2223c-48-36.5-55.6-57.6-55.6-132.4c0-101.7,26.9-143.9,115.1-182.3c63.3-24.9,97.8-19.2,241.8,42.2c30.7,13.4,32.6-143.9,32.6-3137.2c0-2287.2,5.8-3171.7,21.1-3223.5c36.5-122.8,149.7-251.4,276.3-316.6l113.2-57.6h4098.5h4098.5l113.2,57.6c126.6,65.2,239.9,193.8,276.3,316.6c15.4,51.8,21.1,936.4,21.1,3221.6c0,1730.7,3.8,3148.7,7.7,3148.7c3.8,0,46-17.3,94-38.4c103.6-46,184.2-34.5,247.5,32.6c51.8,55.7,57.6,168.8,13.4,237.9c-19.2,28.8-965.2,591-2417.6,1437.1c-1826.7,1064.9-2400.4,1391.1-2452.2,1395C4941,5026.3,4593.7,4830.6,2571.4,3648.6z M7069,3399.2l2055-1199.2v-3246.6v-3246.6l-46.1-53.7l-46-53.7H4998.6H965.4l-46,53.7l-46,53.7v3246.6v3246.6L2932.1,3403c1130.2,660.1,2062.7,1201.1,2068.4,1199.2C5008.2,4600.3,5938.8,4059.2,7069,3399.2z"/><path d="M4904.6,1171.5c-120.9-72.9-128.6-178.4-23-326.2c170.8-237.9,232.2-424.1,232.2-686.9c-1.9-303.2-59.5-485.5-272.5-840.4c-161.2-270.5-232.2-420.2-297.4-638.9c-42.2-140.1-49.9-201.5-51.8-422.1c-1.9-303.2,36.5-468.2,163.1-713.8c147.7-280.1,295.5-397.2,422.1-330c132.4,67.2,143.9,193.8,30.7,349.2c-88.3,119-155.4,259-195.7,397.2c-26.9,88.3-30.7,159.3-23,333.9c11.5,266.7,59.5,427.9,209.1,685c55.7,94,136.2,234.1,180.4,310.8c94,163.1,189.9,437.5,220.7,639c46,297.4-13.4,642.8-159.3,924.8C5190.5,1138.9,5037,1252.1,4904.6,1171.5z"/><path d="M2684.6,1140.8c-71-76.7-57.6-197.6,36.5-322.3c205.3-266.7,272.5-619.8,186.1-961.3c-48-186.1-115.1-331.9-278.2-600.6c-224.5-374.2-316.6-665.8-316.6-1011.2c0-266.7,44.1-452.8,165-694.6c105.5-211.1,220.7-339.6,316.6-355c92.1-13.4,174.6,36.4,203.4,126.6c28.8,84.4,11.5,138.2-71,243.7c-126.6,159.3-228.3,462.4-230.3,675.4c0,247.5,92.1,518.1,295.5,857.7c195.7,326.2,247.5,443.2,310.8,711.9c44.1,184.2,40.3,508.5-9.6,708c-48,195.7-193.8,475.8-303.2,591c-72.9,72.9-90.2,82.5-168.8,82.5C2749.8,1192.6,2722.9,1183,2684.6,1140.8z"/><path d="M7042.1,1142.7c-26.9-28.8-48-61.4-48-72.9c0-11.5-5.8-38.4-11.5-59.5c-5.8-24.9,24.9-90.2,95.9-197.6c184.2-278.2,247.5-531.5,207.2-821.2c-34.5-226.4-97.9-385.7-284-702.3c-261-441.3-337.7-685-335.8-1051.5c0-260.9,42.2-445.2,147.7-660c153.5-308.9,308.9-439.4,445.2-368.4c122.8,63.3,130.5,214.9,17.3,362.6c-159.2,207.2-234.1,462.4-218.7,733c15.3,241.8,80.6,431.7,253.3,729.1c172.7,295.5,237.9,433.7,310.8,646.6c48,147.8,51.8,182.3,51.8,466.3c0,282.1-3.8,318.5-51.8,460.5c-59.5,180.4-197.6,422.1-291.7,518.1c-57.6,57.6-80.6,67.2-155.4,67.2C7105.4,1192.6,7078.6,1183,7042.1,1142.7z"/></g></g>
</svg>