<?xml version="1.0" encoding="utf-8"?>
<!-- Svg Vector Icons : http://www.onlinewebfonts.com/icon -->
<!DOCTYPE svg PUBLIC "-//W3C//DTD SVG 1.1//EN" "http://www.w3.org/Graphics/SVG/1.1/DTD/svg11.dtd">
<svg version="1.1" xmlns="http://www.w3.org/2000/svg" xmlns:xlink="http://www.w3.org/1999/xlink" x="0px" y="0px" viewBox="0 0 1000 1000" enable-background="new 0 0 1000 1000" xml:space="preserve">
<metadata> Svg Vector Icons : http://www.onlinewebfonts.com/icon </metadata>
<g><g transform="translate(0.000000,440.000000) scale(0.100000,-0.100000)"><path d="M4476.6,3564.2c-429.5-59.4-515.7-86.3-625-191.7c-120.8-118.9-161-212.8-174.5-412.2l-9.6-170.6l-676.8-90.1c-370-49.8-707.5-101.6-747.7-115c-226.2-72.9-377.7-197.5-623.1-511.9c-164.9-210.9-266.5-291.4-410.3-329.8c-149.5-38.3-197.5-59.4-235.8-111.2c-55.6-70.9-49.8-163,17.3-237.7c49.8-55.6,65.2-61.3,157.2-59.4c74.8,0,5993.2,778.4,7130.1,937.5c47.9,5.7,103.5,21.1,124.6,30.7c116.9,63.3,140,205.1,49.8,306.8c-51.7,59.4-59.4,61.3-195.5,57.5c-214.7-3.8-308.7,30.7-557.9,214.7c-276.1,201.3-360.4,249.2-502.3,289.5c-170.6,49.8-375.8,40.3-1060.2-51.8c-611.6-82.4-617.3-84.4-626.9-44.1c-5.8,21.1-11.5,55.6-11.5,78.6c0,21.1-26.8,93.9-59.4,159.1c-69,138-186,237.7-329.8,279.9C4984.7,3629.4,4931,3627.5,4476.6,3564.2z M5057.5,3180.8c42.2-42.2,65.2-113.1,53.7-166.8c-5.7-30.7-69-42.2-519.6-101.6l-511.9-69l-11.5,63.3c-13.4,74.8,21.1,172.5,72.9,199.4c44.1,23,636.5,109.3,778.4,111.2C4994.3,3219.1,5028.8,3209.5,5057.5,3180.8z M7114.7,2785.8c111.2-38.3,358.5-212.8,318.3-226.2c-15.4-5.8-1242.4-168.7-2730.1-364.3C3217,1997.8,1984.2,1834.9,1967,1831c-49.8-11.5-15.3,42.2,118.9,187.9c74.8,78.6,149.5,136.1,209,163c84.4,34.5,759.2,138,1535.7,232c90.1,9.6,793.7,105.4,1562.5,209c770.7,103.5,1451.3,189.8,1516.5,191.7C6972.8,2816.5,7064.8,2803.1,7114.7,2785.8z"/><path d="M1002.6,862.9c-155.3-65.2-149.5-322.1,9.6-356.6l57.5-13.4v-784.1v-784.1l-51.8,11.5C697.8-993,569.4-901,490.7-688.2c-59.4,164.9-163,224.3-289.5,166.8C76.6-577,67-730.3,172.5-941.2c132.3-264.6,448.6-469.7,789.9-510l105.4-13.4l5.8-1296c5.7-1271.1,7.7-1297.9,47.9-1405.3c124.6-329.8,371.9-552.1,690.2-619.3c195.6-42.2,6181-42.2,6376.6,0c318.3,67.1,565.6,289.5,690.2,619.3c40.3,107.4,42.2,134.2,47.9,1405.3l5.7,1296l105.4,13.4c341.3,40.3,657.6,245.4,789.9,510c105.4,210.9,95.9,364.3-28.8,419.9c-126.5,57.5-230.1-1.9-289.5-166.8c-78.6-212.8-207.1-304.8-525.3-375.8l-53.7-11.5v786.1c0,765,1.9,786.1,36.4,786.1c21.1,0,61.3,19.2,90.1,44.1c42.2,36.4,51.8,63.3,53.7,134.2c1.9,72.9-7.7,97.8-51.8,141.9l-51.8,53.7L5023,874.4C2833.6,876.3,1023.7,870.5,1002.6,862.9z M8527.6-1746.5c0-2187.5,0-2224-38.3-2327.5c-47.9-126.5-182.1-258.8-316.3-310.6c-94-34.5-186-36.4-3173-36.4s-3079,1.9-3173,36.4c-134.2,51.7-268.4,184-316.3,310.6c-38.3,103.5-38.3,140-38.3,2327.5v2224H5000h3527.6V-1746.5z"/></g></g>
</svg>