<?xml version="1.0" encoding="utf-8"?>
<!-- Svg Vector Icons : http://www.onlinewebfonts.com/icon -->
<!DOCTYPE svg PUBLIC "-//W3C//DTD SVG 1.1//EN" "http://www.w3.org/Graphics/SVG/1.1/DTD/svg11.dtd">
<svg version="1.1" xmlns="http://www.w3.org/2000/svg" xmlns:xlink="http://www.w3.org/1999/xlink" x="0px" y="0px" viewBox="0 0 1000 1000" enable-background="new 0 0 1000 1000" xml:space="preserve">
<metadata> Svg Vector Icons : http://www.onlinewebfonts.com/icon </metadata>
<g><g transform="translate(0.000000,400.000000) scale(0.100000,-0.100000)"><path d="M2712.8,2788.7c-810.3-147.5-1390.7-691.5-1572.6-1475c-24.9-103.4-59.4-400.3-72.8-609.1c-3.8-69-9.6-76.6-80.5-97.7c-164.7-47.9-362-170.5-509.5-316.1C241.8,59.1,123-209.1,102-542.4c-32.6-568.9,341-1107.2,888.8-1275.7l78.5-24.9l9.6-653.2c7.7-727.9,9.6-741.3,149.4-1024.8c63.2-128.3,114.9-197.3,235.6-318c88.1-88.1,206.9-183.9,273.9-220.3l116.8-65.1l7.7-291.2c5.7-289.2,5.7-293.1,59.4-344.8l51.7-53.6h670.4h670.4l51.7,53.6c51.7,51.7,53.6,59.4,59.4,291.2l7.7,239.4H5000h1566.9l7.7-239.4c5.7-231.8,7.6-239.4,59.4-291.2l51.7-53.6H7356h670.4l51.7,53.6c53.6,51.7,53.6,55.6,59.4,344.8l7.7,291.2l116.8,65.1c67,36.4,185.8,132.2,273.9,220.3c120.7,120.7,172.4,189.6,235.6,318c139.8,283.5,141.8,296.9,149.4,1030.5c7.6,505.7,13.4,655.1,32.5,655.1c40.2,0,254.8,91.9,341,147.5c226,143.7,373.5,310.3,486.5,547.8c172.4,365.9,157.1,794.9-44,1162.7c-136,245.2-459.7,507.6-724.1,584.2c-70.9,21.1-76.6,28.7-80.4,97.7c-13.4,208.8-47.9,505.7-72.8,609.1c-86.2,369.7-260.5,687.7-515.3,940.5c-245.2,243.3-524.8,398.4-909.9,503.8l-183.9,51.7l-2193.3,3.8C3218.5,2815.5,2839.3,2811.7,2712.8,2788.7z M7164.5,2407.5c808.4-122.6,1314-689.6,1354.3-1517.1l11.5-235.6h-53.7c-90,0-281.6-57.5-431-130.3c-109.2-53.6-182-109.2-306.5-233.7c-264.3-264.3-354.4-475-385-902.2c-38.3-553.6-185.8-865.8-473.1-1007.6l-109.2-53.6H5000H3228.1l-109.2,53.6c-287.3,141.8-434.8,454-473.1,1007.6c-30.6,427.2-120.7,637.9-385,902.2c-124.5,124.5-197.3,180.1-306.5,233.7c-149.4,72.8-341,130.3-431,130.3h-53.6l11.5,235.6c40.2,821.8,545.9,1394.5,1344.7,1519C3067.2,2445.8,6917.4,2445.8,7164.5,2407.5z M1599.9,241c402.3-103.4,660.9-473.1,660.9-946.3c0-57.5,11.5-176.2,26.8-260.5c97.7-553.6,367.8-913.7,794.9-1059.3l145.6-49.8H5000h1771.8l145.6,49.8c427.2,145.6,697.3,505.7,794.9,1059.3c15.3,84.3,26.8,203,26.8,260.5c0,473.1,258.6,842.8,660.8,946.3c417.6,109.2,844.7-91.9,1032.5-486.5c55.6-116.8,59.4-137.9,59.4-354.4c0-224.1-1.9-233.7-68.9-375.4c-149.4-314.1-392.7-467.4-821.8-524.8l-86.2-9.6l5.8-762.4c3.8-475-1.9-794.9-15.3-852.4c-49.8-235.6-243.3-490.4-457.8-605.3c-227.9-120.7-111.1-116.9-3047.6-116.9c-2936.5,0-2819.6-3.8-3047.6,116.9c-214.5,114.9-408,369.7-457.8,605.3c-13.4,57.5-19.2,377.4-15.3,852.4l5.7,762.4l-86.2,11.5c-214.5,26.8-298.8,49.8-415.7,105.4c-172.4,86.2-319.9,237.5-406.1,417.6c-67,141.7-69,151.3-69,375.4c0,216.4,3.8,237.5,59.4,354.4C755.2,149.1,1182.3,350.2,1599.9,241z M3036.5-4335.1v-95.8l-386.9-5.7l-388.8-3.8v105.4v105.4l388.8-3.8l386.9-5.7V-4335.1z M7739.1-4335.1v-105.4l-386.9,3.8l-388.9,5.7l-5.7,74.7c-11.5,132.2-26.8,126.4,398.4,126.4h383.1V-4335.1z"/></g></g>
</svg>