<?xml version="1.0" encoding="utf-8"?>
<!-- Svg Vector Icons : http://www.onlinewebfonts.com/icon -->
<!DOCTYPE svg PUBLIC "-//W3C//DTD SVG 1.1//EN" "http://www.w3.org/Graphics/SVG/1.1/DTD/svg11.dtd">
<svg version="1.1" xmlns="http://www.w3.org/2000/svg" xmlns:xlink="http://www.w3.org/1999/xlink" x="0px" y="0px" viewBox="0 0 1000 1000" enable-background="new 0 0 1000 1000" xml:space="preserve">
<metadata> Svg Vector Icons : http://www.onlinewebfonts.com/icon </metadata>
<g><g transform="translate(0.000000,476.000000) scale(0.100000,-0.100000)"><path d="M2544,2061.7L100-382.3v-96c0-128,66-194,196-194c84,0,98,8,244,150l154,152l12-146c14-186,76-352,182-482l82-104l-64-70c-154-166-232-436-192-670c26-152,110-326,200-414l64-62l-78-92c-258-310-262-734-14-1046l86-106l-58-60c-214-228-272-592-138-880c90-188,220-318,472-464c34-20,832-24,3772-20l3730,4l132,94c174,124,270,232,342,386c134,288,76,652-138,880l-58,60l86,106c248,312,244,736-14,1046l-78,92l64,62c90,88,174,262,200,414c40,234-38,504-192,670l-64,70l82,104c106,130,168,296,182,480l12,146l156-150c148-142,162-150,248-150c126,0,190,68,190,198v92l-2444,2444c-1346,1346-2450,2446-2456,2446S3890,3407.7,2544,2061.7z M5580,3357.7l570-570H5000H3850l570,570c314,314,574,570,580,570S5266,3671.7,5580,3357.7z M6960,1977.7l410-410H5000H2630l410,410l410,410h1550h1550L6960,1977.7z M8190,747.7l400-400H5000H1410l400,400l400,400h2790h2790L8190,747.7z M1694-120.3c278-130,308-530,50-694c-286-182-630,6-628,342c2,120,60,240,152,310C1400-62.3,1538-48.3,1694-120.3z M7760-76.3c0-4-20-56-44-116c-60-154-60-426,0-580c24-60,44-112,44-114c0-4-1242-6-2760-6c-1518,0-2760,2-2760,6c0,2,20,54,44,114c32,84,42,152,42,290s-10,206-42,290c-24,60-44,112-44,116c0,2,1242,4,2760,4C6518-72.3,7760-74.3,7760-76.3z M8708-146.3c344-242,134-798-276-738c-220,34-364,212-348,432C8106-138.3,8454,31.7,8708-146.3z M1736-1368.3c166-120,226-308,156-494c-148-386-738-302-768,110c-10,144,18,234,102,320c92,96,164,122,314,114C1638-1322.3,1688-1334.3,1736-1368.3z M3560-1712.3v-400h-660c-362,0-660,2-660,6c0,2,20,54,44,114c60,154,60,408,0,560c-24,60-44,112-44,116c0,2,298,4,660,4h660V-1712.3z M6020-2942.3v-1630H5000H3980v1630v1630h1020h1020V-2942.3z M7760-1316.3c0-4-20-56-44-116c-60-152-60-406,0-560c24-60,44-112,44-114c0-4-296-6-660-6h-660v400v400h660C7464-1312.3,7760-1314.3,7760-1316.3z M8704-1370.3c126-88,166-168,166-342c0-136-6-162-54-226c-86-110-170-160-286-170c-256-22-448,152-450,402c0,156,80,284,230,364C8400-1294.3,8614-1308.3,8704-1370.3z M1746-2604.3c242-168,228-542-24-684c-120-68-306-62-426,14c-214,136-240,460-52,636C1376-2516.3,1596-2500.3,1746-2604.3z M3560-2942.3v-410h-660c-362,0-660,2-660,6c0,2,20,54,44,114c32,84,42,152,42,290s-10,206-42,290c-24,60-44,112-44,116c0,2,298,4,660,4h660V-2942.3z M7760-2536.3c0-4-20-56-44-116c-32-84-42-152-42-290s10-206,42-290c24-60,44-112,44-114c0-4-296-6-660-6h-660v410v410h660C7464-2532.3,7760-2534.3,7760-2536.3z M8636-2562.3c296-126,336-542,68-712c-76-48-114-58-220-58c-228,0-382,134-400,352C8058-2666.3,8352-2444.3,8636-2562.3z M1732-3824.3c114-84,174-182,184-296c16-190-68-342-226-414c-170-78-376-26-498,128c-58,72-62,90-62,232c0,180,42,260,180,352c72,48,96,52,224,46C1640-3780.3,1692-3794.3,1732-3824.3z M3560-4172.3v-400h-660c-362,0-660,2-660,6c0,2,18,50,38,104c60,160,72,308,32,478c-18,84-40,156-52,162c-66,42,36,50,642,50h660V-4172.3z M7760-3790.3c0-12-8-24-18-32c-12-6-34-78-52-162c-40-170-28-318,32-478c20-54,38-102,38-104c0-4-296-6-660-6h-660v400v400h660C7500-3772.3,7760-3780.3,7760-3790.3z M8692-3824.3c136-88,178-170,178-350c0-142-4-160-62-232c-246-310-726-154-728,238c0,118,20,172,104,266c84,98,158,128,306,130C8588-3772.3,8628-3782.3,8692-3824.3z"/></g></g>
</svg>