<?xml version="1.0" encoding="utf-8"?>
<!-- Svg Vector Icons : http://www.onlinewebfonts.com/icon -->
<!DOCTYPE svg PUBLIC "-//W3C//DTD SVG 1.1//EN" "http://www.w3.org/Graphics/SVG/1.1/DTD/svg11.dtd">
<svg version="1.1" xmlns="http://www.w3.org/2000/svg" xmlns:xlink="http://www.w3.org/1999/xlink" x="0px" y="0px" viewBox="0 0 1000 1000" enable-background="new 0 0 1000 1000" xml:space="preserve">
<metadata> Svg Vector Icons : http://www.onlinewebfonts.com/icon </metadata>
<g><g transform="translate(0.000000,461.000000) scale(0.100000,-0.100000)"><path d="M5264.5,4008.9c-170.7-40.3-322.1-157.2-400.8-310.6c-32.6-61.4-44.1-122.7-49.8-266.5l-7.7-186l-1058.5-5.8l-1056.6-5.7l-109.3-53.7c-117-57.5-201.3-141.9-268.5-268.5l-44.1-80.5V693.4v-2138.1l44.1-88.2c57.5-117,164.9-222.4,281.9-278l95.9-46h3277.1c2299.1,0,3296.3,5.8,3346.1,21.1c103.5,30.7,212.9,111.2,283.8,210.9c126.5,176.4,122.7,99.7,117,2368.2l-5.7,2049.9l-44.1,95.9c-57.5,124.6-176.4,245.4-299.2,301.1l-97.8,44.1l-1047,5.7l-1047,5.8l-11.5,174.5c-17.3,276.1-132.3,454.4-356.7,559.9c-84.4,38.3-117,40.3-778.5,44.1C5648,4026.1,5304.8,4020.4,5264.5,4008.9z M6710.4,3571.7c51.8-51.8,55.6-67.1,55.6-191.8v-136.1h-786.2h-786.2v120.8c1.9,65.2,13.4,140,26.9,164.9c51.8,94,70.9,95.9,774.7,97.8h659.7L6710.4,3571.7z M9266.5,2781.6l49.8-59.4V683.8v-2040.3l-46-53.7l-46-53.7l-3223.4-5.7l-3221.5-3.8l-63.3,55.6l-63.3,55.6L2647,658.9c-3.8,1491.9,1.9,2032.6,17.3,2072.9c49.8,117-197.5,109.3,3327,109.3h3225.4L9266.5,2781.6z"/><path d="M227.1,3422.1c-94-34.5-151.5-151.5-117-237.8c49.9-118.9,55.6-120.8,381.6-134.2c347.1-13.4,454.5-40.3,577.2-143.8c44.1-38.3,103.5-113.1,132.3-168.7l51.8-97.8l11.5-2195.6c9.6-2130.4,11.5-2201.4,49.8-2368.2c113.1-489,364.3-755.5,818.8-872.5c84.4-21.1,199.4-38.3,258.9-38.3c122.7,0,111.2-19.2-40.3-63.3c-345.2-105.5-607.9-404.6-667.3-765.1c-82.5-485.1,197.5-943.4,671.2-1100.7c157.2-51.8,433.4-47.9,596.4,7.7c772.8,264.6,908.9,1290.5,233.9,1741.1c-61.3,42.2-166.8,94-235.9,117l-124.6,42.2h2866.8c2774.7,0,2862.9-1.9,2759.4-34.5c-168.8-53.7-295.3-132.3-418-258.9c-186-195.6-276.1-414.2-274.2-680.7c1.9-385.4,214.8-721,561.9-882.1c642.4-301.1,1386.4,170.7,1384.5,880.2c0,441-253.1,788.1-676.9,933.8l-124.6,42.2l393.1,1.9c412.3,0,508.2,13.4,565.7,76.7c55.6,61.4,47.9,201.3-17.3,264.6l-49.8,51.8l-3764.2,9.6c-3499.6,9.6-3769.9,11.5-3858.1,42.2c-197.5,67.1-335.6,189.8-414.2,370.1c-92,207.1-94,264.6-94,2473.7c0,1327-7.7,2115.1-19.2,2195.6c-42.2,262.7-218.6,525.4-441,661.6c-174.5,105.5-358.6,143.8-678.8,141.9C376.6,3433.6,242.4,3427.9,227.1,3422.1z M2905.9-3306.6c425.7-207.1,427.6-826.5,0-1047c-120.8-61.4-335.6-69-473.6-17.2c-170.6,63.3-318.3,232-354.7,402.7c-51.8,241.6,40.3,485.1,235.9,619.4C2486-3229.9,2714.2-3212.7,2905.9-3306.6z M8980.8-3302.8c117-53.7,224.4-159.2,281.9-278c67.1-132.3,63.3-377.8-7.7-510.1c-105.5-199.4-268.5-303-500.5-314.5c-136.2-5.8-161.1,0-272.3,53.7c-366.3,180.3-446.8,632.8-164.9,928.1C8487.9-3243.3,8748.7-3195.4,8980.8-3302.8z"/></g></g>
</svg>