<?xml version="1.0" encoding="utf-8"?>
<!-- Svg Vector Icons : http://www.onlinewebfonts.com/icon -->
<!DOCTYPE svg PUBLIC "-//W3C//DTD SVG 1.1//EN" "http://www.w3.org/Graphics/SVG/1.1/DTD/svg11.dtd">
<svg version="1.1" xmlns="http://www.w3.org/2000/svg" xmlns:xlink="http://www.w3.org/1999/xlink" x="0px" y="0px" viewBox="0 0 1000 1000" enable-background="new 0 0 1000 1000" xml:space="preserve">
<metadata> Svg Vector Icons : http://www.onlinewebfonts.com/icon </metadata>
<g><g transform="translate(0.000000,402.000000) scale(0.100000,-0.100000)"><path d="M3258.2,2277.7c-953.2-323.5-2053.8-698.6-2444.3-832.6L100,1203.9v-2419.4v-2419.4h543.6h545.5l-38.3-86.1c-130.2-294.7-67-633.5,162.7-863.2c491.9-490,1332.2-135.9,1332.2,558.9c0,86.1-36.4,241.2-86.1,357.9c-13.4,30.6,19.1,32.5,524.5,32.5h537.9v-593.3v-593.4H5000h1378.1v593.4v593.3h631.6c354.1,0,631.6-7.6,631.6-17.2s-11.5-40.2-26.8-68.9c-15.3-30.6-38.3-111-51.7-181.8c-44-246.9,38.3-497.6,220.1-681.4c388.5-386.6,1022.1-268,1261.4,237.3c55.5,116.8,61.3,143.6,59.3,310.1c0,139.7-9.6,204.8-42.1,287.1c-23,57.4-42.1,107.2-42.1,111c0,1.9,199.1,3.8,440.2,3.8H9900v2419.4v2419.4l-281.4,95.7c-157,51.7-1249.9,423-2430.9,825c-1181,400-2157.2,733.1-2172.5,736.9C5001.9,2865.3,4211.4,2603.1,3258.2,2277.7z M7228,1697.8C8451.1,1282.4,9465.5,936,9484.6,930.2c30.6-13.4,32.5-126.3,28.7-2094l-5.7-2078.7l-1563.8-5.7l-1565.7-3.8v1961.9V671.8H5000H3621.9v-1961.9V-3252l-1563.8,3.8l-1565.7,5.7L486.6-1160c-1.9,1144.6-1.9,2080.6,0,2080.6c3.8,0,1014.5,344.5,2245.2,763.7C3964.5,2105.4,4978.9,2450,4988.5,2450C4998.1,2451.9,6006.8,2113.1,7228,1697.8z M5976.2-1491.1V-3252H5000h-976.2v1760.9V269.9H5000h976.2V-1491.1z M5976.2-3740.1v-105.3H5000h-976.2v105.3v105.3H5000h976.2V-3740.1z M2063.8-3701.8c197.1-116.7,246.9-394.3,99.5-574.2c-181.8-220.1-530.2-179.9-648.9,76.6c-88.1,187.6,1.9,436.4,183.8,518.7C1795.9-3636.7,1970-3646.3,2063.8-3701.8z M8533.3-3703.7c130.2-84.2,170.4-162.7,170.4-335c0-135.9-3.8-153.1-59.3-222c-235.4-296.7-694.8-147.4-696.7,227.8c0,112.9,19.1,164.6,99.5,254.6c80.4,93.8,151.2,122.5,292.9,124.4C8433.8-3654,8472.1-3663.5,8533.3-3703.7z M5976.2-4323.9v-95.7H5000h-976.2v95.7v95.7H5000h976.2V-4323.9z"/><path d="M1076.2-505.3v-1177.2h985.7h985.7v1177.2V671.8h-985.7h-985.7V-505.3z M2645.7-505.3v-775.2h-583.8h-583.8v775.2v775.2h583.8h583.8V-505.3z"/><path d="M6952.3-505.3v-1177.2h985.7h985.7v1177.2V671.8h-985.7h-985.7V-505.3z M8521.9-505.3v-775.2h-583.8h-583.8v775.2v775.2h583.8h583.8V-505.3z"/></g></g>
</svg>