<?xml version="1.0" encoding="utf-8"?>
<!-- Svg Vector Icons : http://www.onlinewebfonts.com/icon -->
<!DOCTYPE svg PUBLIC "-//W3C//DTD SVG 1.1//EN" "http://www.w3.org/Graphics/SVG/1.1/DTD/svg11.dtd">
<svg version="1.1" xmlns="http://www.w3.org/2000/svg" xmlns:xlink="http://www.w3.org/1999/xlink" x="0px" y="0px" viewBox="0 0 1000 1000" enable-background="new 0 0 1000 1000" xml:space="preserve">
<metadata> Svg Vector Icons : http://www.onlinewebfonts.com/icon </metadata>
<g><g transform="translate(0.000000,512.000000) scale(0.100000,-0.100000)"><path d="M1259.8,4990c-68.9-21.1-124.4-59.3-204.8-139.7c-187.6-189.5-170.4,294.8-170.4-4729.8c0-5024.5-17.2-4540.3,170.4-4729.8c187.6-187.6-193.3-170.4,3945-170.4c4138.3,0,3757.4-17.2,3945,170.4c187.6,189.5,170.4-294.8,170.4,4729.8c0,5024.6,17.2,4540.3-170.4,4729.8c-187.6,187.6,195.2,170.4-3952.6,168.4C1809.2,5018.8,1342.1,5014.9,1259.8,4990z M8617.7,4616.8c122.5-44,114.8,277.5,114.8-4492.4c0-3190.8-5.7-4360.3-21.1-4406.3c-44-122.5,202.9-114.9-3711.5-114.9c-3914.4,0-3667.4-7.7-3711.5,114.9c-30.6,90-30.6,8715,0,8804.9c44,120.6-201,112.9,3703.8,114.8C7603.2,4637.8,8571.7,4632.1,8617.7,4616.8z"/><path d="M2058,4209.1c-103.4-32.5-216.3-114.8-279.4-204.8c-114.8-157-109.1-59.3-109.1-2162.9c0-1196.3,7.7-1944.7,19.1-1973.5c34.4-84.2,72.7-114.8,158.9-124.4c68.9-7.6,91.9-1.9,139.7,38.3l55.5,47.9l9.6,1950.5c7.7,1491.1,15.3,1958.1,32.5,1988.8c13.4,23,51.7,51.7,84.2,63.2c42.1,15.3,457.5,21.1,1349.4,21.1h1286.3l7.7-239.3c5.7-231.6,7.7-239.3,59.3-290.9c38.3-40.2,70.8-53.6,128.2-53.6s90,13.4,128.3,53.6c51.7,51.7,53.6,59.3,59.3,290.9l7.7,239.3h1286.3c892,0,1307.3-5.7,1349.5-21.1c32.5-11.5,70.8-40.2,84.2-63.2c17.2-30.6,24.9-497.7,32.5-1988.8l9.6-1950.5l53.6-45.9c101.4-86.1,266.1-40.2,302.4,88c11.5,44,17.2,731.2,13.4,2009.8l-5.7,1942.8l-44,88.1c-55.5,112.9-157,214.4-269.9,269.9l-88,44l-2890.3,3.8C2695.4,4232.1,2123.1,4228.2,2058,4209.1z"/><path d="M2770.1,1079.5c-21.1-9.6-51.7-32.5-70.8-51.7c-17.2-21.1-122.5-268-235.4-549.4C2236-88.1,2228.4-130.2,2331.7-222.1c74.6-63.2,208.6-47.9,264.1,28.7c63.2,84.2,432.6,1022.1,432.6,1094.9c0,84.2-26.8,130.2-95.7,166.5C2871.5,1098.7,2827.5,1102.5,2770.1,1079.5z"/><path d="M3554.8,1079.5c-21.1-9.6-51.7-32.5-70.8-51.7c-17.2-21.1-122.5-268-235.4-549.4c-227.8-566.6-235.4-608.7-132.1-700.6c68.9-59.3,206.7-47.9,258.4,19.1c53.6,70.8,438.3,1043.2,438.3,1110.2c0,78.5-28.7,126.3-95.7,160.8C3656.3,1098.7,3612.3,1102.5,3554.8,1079.5z"/><path d="M4339.6,1079.5c-21.1-9.6-51.7-32.5-70.8-51.7c-17.2-21.1-122.5-268-235.4-549.4c-227.8-566.6-235.4-608.7-132.1-700.6c68.9-59.3,206.7-47.9,258.4,19.1C4207.6-139.8,4598,836.4,4598,893.8C4598,1039.3,4467.9,1131.2,4339.6,1079.5z"/><path d="M5124.4,1079.5c-21-9.6-51.7-32.5-70.8-51.7c-49.8-57.4-436.4-1043.2-436.4-1114c0-46,17.2-80.4,57.4-122.5c53.6-51.7,68.9-57.4,147.4-47.9c63.2,5.8,99.5,23,122.5,53.6c47.9,63.2,438.3,1039.4,438.3,1096.8C5382.8,1039.3,5252.7,1131.2,5124.4,1079.5z"/><path d="M5909.2,1079.5c-21.1-9.6-53.6-34.5-72.7-55.5C5781,964.7,5402-3.9,5402-82.3c0-49.8,15.3-82.3,57.4-126.3c53.6-51.7,68.9-57.4,143.6-47.9c59.4,5.8,97.6,23,124.4,53.6c47.9,59.3,440.3,1035.5,440.3,1096.8C6167.6,1039.3,6037.5,1131.2,5909.2,1079.5z"/><path d="M6694,1079.5c-21-9.6-53.6-34.5-72.7-55.5C6565.8,964.7,6186.7-3.9,6186.7-82.3c0-93.8,86.2-179.9,178-179.9c132.1,0,162.7,47.9,384.7,602.9c111,279.5,202.9,526.4,202.9,551.3c0,82.3-24.9,128.2-86.1,166.5C6801.2,1098.7,6757.2,1104.4,6694,1079.5z"/><path d="M7478.8,1079.5c-21-9.6-53.6-34.5-72.7-55.5C7350.5,964.7,6971.5-3.9,6971.5-82.3c0-93.8,86.2-179.9,178-179.9c132.1,0,162.7,47.9,384.7,608.7c111,283.3,202.9,532.1,202.9,555.1C7737.2,1033.6,7599.4,1129.3,7478.8,1079.5z"/><path d="M3239-2329.5v-1473.9h1761h1761v1473.9v1473.9H5000H3239V-2329.5z M6378.2-1650c0-357.9-3.8-394.3-32.6-403.9c-105.3-34.5-145.4-55.5-208.6-118.7c-206.7-201-199.1-535.9,17.2-721.6c44-38.3,111-78.5,151.2-90l72.7-21v-199.1v-197.1H5000H3621.8v1071.9v1071.9H5000h1378.2V-1650z"/><path d="M4655.5-1466.2c-166.5-51.7-313.9-179.9-386.7-336.9c-61.2-135.9-61.2-346.4,3.8-478.5c212.5-438.3,834.6-447.9,1054.7-13.4c32.5,65.1,47.9,130.2,51.7,239.3c7.7,137.8,1.9,160.8-51.7,271.8c-72.7,145.5-178,243.1-321.6,296.7C4902.4-1449,4745.4-1439.5,4655.5-1466.2z"/><path d="M4052.5-2635.8c-134-30.6-204.8-118.7-216.3-268c-5.7-86.1,0-116.8,38.3-172.3c124.4-185.7,407.7-170.4,501.5,26.8C4481.3-2827.2,4289.9-2580.3,4052.5-2635.8z"/></g></g>
</svg>