<?xml version="1.0" encoding="utf-8"?>
<!-- Svg Vector Icons : http://www.onlinewebfonts.com/icon -->
<!DOCTYPE svg PUBLIC "-//W3C//DTD SVG 1.1//EN" "http://www.w3.org/Graphics/SVG/1.1/DTD/svg11.dtd">
<svg version="1.1" xmlns="http://www.w3.org/2000/svg" xmlns:xlink="http://www.w3.org/1999/xlink" x="0px" y="0px" viewBox="0 0 1000 1000" enable-background="new 0 0 1000 1000" xml:space="preserve">
<metadata> Svg Vector Icons : http://www.onlinewebfonts.com/icon </metadata>
<g><g transform="translate(0.000000,512.000000) scale(0.100000,-0.100000)"><path d="M1259.8,4990c-68.9-21.1-124.4-59.3-204.8-139.7c-187.6-189.5-170.4,294.8-170.4-4729.8c0-5024.5-17.2-4540.3,170.4-4729.8c187.6-187.6-193.3-170.4,3945-170.4c4138.3,0,3757.4-17.2,3945,170.4c187.6,189.5,170.4-294.8,170.4,4729.8c0,5024.6,17.2,4540.3-170.4,4729.8c-187.6,187.6,195.2,170.4-3952.6,168.4C1809.2,5018.8,1342.1,5014.9,1259.8,4990z M8617.7,4616.8c122.5-44,114.8,277.5,114.8-4492.4c0-3190.8-5.7-4360.3-21.1-4406.3c-44-122.5,202.9-114.9-3711.5-114.9c-3914.4,0-3667.4-7.7-3711.5,114.9c-30.6,90-30.6,8715,0,8804.9c44,120.6-201,112.9,3703.8,114.8C7603.2,4637.8,8571.7,4632.1,8617.7,4616.8z"/><path d="M4933,4218.7c-21.1-9.6-55.5-36.4-76.6-59.3c-36.4-38.3-38.3-68.9-38.3-413.5v-371.3l51.7-51.7c40.2-40.2,72.7-53.6,130.2-53.6s90,13.4,130.2,53.6l51.7,51.7v373.3c0,371.3,0,373.2-47.9,421.1C5080.4,4220.6,4992.3,4243.5,4933,4218.7z"/><path d="M1793.9,1079.5c-21.1-9.6-55.5-36.4-76.6-59.3c-38.3-42.1-38.3-72.7-44-2095.9c-3.8-2011.7-3.8-2057.7,34.4-2157.2c76.6-202.9,224-323.5,440.2-357.9c72.7-13.4,478.5-21.1,989.6-21.1c855.6,0,865.2,0,876.7-40.2c23-70.8,283.3-313.9,415.4-386.7c346.4-193.3,794.4-193.3,1140.8,0c132.1,72.7,392.4,315.8,415.4,386.7c11.5,40.2,21.1,40.2,876.7,40.2c511.1,0,916.9,7.7,989.6,21.1c216.3,34.5,363.7,155,440.3,357.9c38.3,99.5,38.3,145.5,34.5,2157.2L8321,978.1l-45.9,49.8c-82.3,88.1-179.9,82.3-312-13.4c-3.8-1.9-9.6-932.2-15.3-2067.2l-9.6-2065.3l-53.6-45.9l-53.6-46h-832.6h-830.7v199.1v199.1l82.3,11.5c201,30.6,472.8,222,581.9,409.6c158.9,269.9,158.9,637.4,0,907.3c-99.6,170.4-304.4,327.3-509.2,390.5c-107.2,32.5-352.2,36.4-463.2,7.6c-208.7-57.4-413.5-204.8-524.5-382.8c-57.4-91.9-124.4-271.8-124.4-336.9c0-40.2-5.7-42.1-210.6-42.1s-210.6,1.9-210.6,42.1c0,65.1-67,245-124.4,336.9c-111,178-315.8,325.4-524.5,382.8c-111,28.7-356,24.9-463.2-7.6c-204.8-63.2-409.6-220.1-509.2-390.5c-158.9-269.9-158.9-637.4,0-907.3c109.1-187.6,380.9-379,581.9-409.6l82.3-11.5v-199.1V-3210h-830.7H2169l-53.6,46l-53.6,45.9l-9.6,2046.2c-7.7,1636.6-15.3,2053.8-34.4,2088.3C1977.6,1085.3,1878.1,1114,1793.9,1079.5z M4127.2-1496.9c88.1-42.1,187.6-137.8,235.4-225.9c26.8-47.9,34.4-107.2,34.4-277.6c0-193.3,3.8-222,40.2-262.2c65.1-72.7,132.1-80.4,275.6-26.8c174.2,63.2,400.1,63.2,574.2,0c143.6-53.6,210.6-46,275.6,26.8c36.4,40.2,40.2,68.9,40.2,262.2c0,239.3,15.3,289,132.1,403.9c101.4,101.5,193.3,137.8,346.4,137.8c158.9-1.9,254.6-44,359.9-160.8c65.1-72.8,128.2-227.8,128.2-317.8c0-90-63.2-245-128.2-317.7c-122.5-135.9-193.3-160.8-434.5-157c-206.7,3.8-206.7,3.8-264.2-51.7c-49.8-51.7-55.5-68.9-47.9-139.7c3.8-44,23-118.7,42.1-166.5c166.5-434.5-134-928.3-622.1-1018.3c-224-42.1-482.4,44-658.4,220.1c-231.6,229.7-294.8,516.8-183.8,832.6c47.9,137.8,42.1,227.8-21.1,283.3c-34.4,30.6-72.7,36.4-254.6,36.4c-179.9,0-224,7.7-290.9,42.1c-112.9,59.3-210.6,178-245,294.8c-38.3,126.3-38.3,156.9,0,283.3c44,151.2,170.4,277.5,333.1,329.2C3868.8-1441.4,4044.9-1456.7,4127.2-1496.9z"/><path d="M4911.9-3240.6c-178-88.1-111-352.2,88.1-352.2c201,0,266.1,268,86.1,354.1C5007.7-3202.3,4986.6-3202.3,4911.9-3240.6z"/><path d="M2770.1,1079.5c-21.1-9.6-51.7-32.5-70.8-51.7c-17.2-21.1-122.5-268-235.4-549.4C2236-88.1,2228.4-130.2,2331.7-222.1c74.6-63.2,208.6-47.9,264.1,28.7c63.2,84.2,432.6,1022.1,432.6,1094.9c0,84.2-26.8,130.2-95.7,166.5C2871.5,1098.7,2827.5,1102.5,2770.1,1079.5z"/><path d="M3554.8,1079.5c-21.1-9.6-51.7-32.5-70.8-51.7c-17.2-21.1-122.5-268-235.4-549.4c-227.8-566.6-235.4-608.7-132.1-700.6c68.9-59.3,206.7-47.9,258.4,19.1c53.6,70.8,438.3,1043.2,438.3,1110.2c0,78.5-28.7,126.3-95.7,160.8C3656.3,1098.7,3612.3,1102.5,3554.8,1079.5z"/><path d="M4339.6,1079.5c-21.1-9.6-51.7-32.5-70.8-51.7c-17.2-21.1-122.5-268-235.4-549.4c-227.8-566.6-235.4-608.7-132.1-700.6c68.9-59.3,206.7-47.9,258.4,19.1C4207.6-139.8,4598,836.4,4598,893.8C4598,1039.3,4467.9,1131.2,4339.6,1079.5z"/><path d="M5124.4,1079.5c-21-9.6-51.7-32.5-70.8-51.7c-49.8-57.4-436.4-1043.2-436.4-1114c0-46,17.2-80.4,57.4-122.5c53.6-51.7,68.9-57.4,147.4-47.9c63.2,5.8,99.5,23,122.5,53.6c47.9,63.2,438.3,1039.4,438.3,1096.8C5382.8,1039.3,5252.7,1131.2,5124.4,1079.5z"/><path d="M5909.2,1079.5c-21.1-9.6-53.6-34.5-72.7-55.5C5781,964.7,5402-3.9,5402-82.3c0-49.8,15.3-82.3,57.4-126.3c53.6-51.7,68.9-57.4,143.6-47.9c59.4,5.8,97.6,23,124.4,53.6c47.9,59.3,440.3,1035.5,440.3,1096.8C6167.6,1039.3,6037.5,1131.2,5909.2,1079.5z"/><path d="M6694,1079.5c-21-9.6-53.6-34.5-72.7-55.5C6565.8,964.7,6186.7-3.9,6186.7-82.3c0-93.8,86.2-179.9,178-179.9c132.1,0,162.7,47.9,384.7,602.9c111,279.5,202.9,526.4,202.9,551.3c0,82.3-24.9,128.2-86.1,166.5C6801.2,1098.7,6757.2,1104.4,6694,1079.5z"/><path d="M7478.8,1079.5c-21-9.6-53.6-34.5-72.7-55.5C7350.5,964.7,6971.5-3.9,6971.5-82.3c0-93.8,86.2-179.9,178-179.9c132.1,0,162.7,47.9,384.7,608.7c111,283.3,202.9,532.1,202.9,555.1C7737.2,1033.6,7599.4,1129.3,7478.8,1079.5z"/></g></g>
</svg>