<?xml version="1.0" encoding="utf-8"?>
<!-- Svg Vector Icons : http://www.onlinewebfonts.com/icon -->
<!DOCTYPE svg PUBLIC "-//W3C//DTD SVG 1.1//EN" "http://www.w3.org/Graphics/SVG/1.1/DTD/svg11.dtd">
<svg version="1.1" xmlns="http://www.w3.org/2000/svg" xmlns:xlink="http://www.w3.org/1999/xlink" x="0px" y="0px" viewBox="0 0 1000 1000" enable-background="new 0 0 1000 1000" xml:space="preserve">
<metadata> Svg Vector Icons : http://www.onlinewebfonts.com/icon </metadata>
<g><g transform="translate(0.000000,410.000000) scale(0.100000,-0.100000)"><path fill="#FFFFFF" d="M4272.7,3009.1c-1747.5-44-2897.9-250.7-3550.6-635.5c-191.4-112.9-428.7-354.1-507.2-514.9C96.2,1611.8,101.9,1786,100-1663.2v-3154.4h784.8h784.8v296.7v296.7H5000h3330.5v-296.7v-296.7h784.8H9900v3154.4c-1.9,3449.1,3.8,3275-114.8,3521.9c-78.5,160.8-315.8,402-507.2,514.9C8763,2676,7907.5,2875.1,6732.2,2963.1C6089.1,3011,5063.2,3030.1,4272.7,3009.1z M6584.8,2582.2c1531.2-118.7,2373.4-350.3,2737.1-748.4c178-195.2,181.8-214.4,191.4-1037.4l7.7-713.9h-202.9h-202.9v333c0,537.9-72.7,784.8-298.6,1010.6c-268,269.9-694.8,388.5-1471.9,411.5C6024,1874,5419.2,1625.2,5237.4,972.5c-21.1-82.3-34.5-227.8-40.2-501.5l-11.5-388.6H5000h-185.7L4802.9,471c-13.4,522.5-63.2,702.5-258.4,916.8c-239.3,260.3-595.3,388.5-1209.7,438.3c-342.6,26.8-1006.8,11.5-1280.5-30.6c-543.6-84.2-884.3-283.3-1047-612.5c-93.8-189.5-122.5-371.3-122.5-767.5v-333H681.9H479l7.7,713.9c7.7,685.2,9.6,715.9,51.7,821.1c229.7,583.8,1378.1,909.2,3514.2,999.1C4452.6,2633.9,6238.4,2609,6584.8,2582.2z M3457.3,1420.4c535.9-55.5,819.2-214.4,911.1-511c32.5-103.4,38.3-178,38.3-474.7V82.5H2837.1H1267.6v235.4c1.9,604.8,78.5,807.7,365.6,951.3C1954.7,1433.8,2726.1,1496.9,3457.3,1420.4z M7765.8,1420.4c359.8-36.4,639.3-134,773.3-269.9c143.6-143.6,191.4-354.1,193.3-832.6V82.5H7162.9H5593.4v352.2c0,296.7,5.7,371.3,38.3,474.7c82.3,266.1,289,403.9,725.4,486.2C6674.8,1454.8,7310.3,1466.3,7765.8,1420.4z M9507.6-2371.4v-2053.8l-386.6-5.7l-388.6-3.8v296.7v296.7H5000H1267.6V-4138v-296.7l-386.6,3.8l-388.5,5.7l-5.7,2038.5c-1.9,1121.7,0,2048,3.8,2057.6c3.8,13.4,1523.6,17.2,4511.4,15.3l4505.7-3.8V-2371.4z"/></g></g>
</svg>