<?xml version="1.0" encoding="utf-8"?>
<!-- Svg Vector Icons : http://www.onlinewebfonts.com/icon -->
<!DOCTYPE svg PUBLIC "-//W3C//DTD SVG 1.1//EN" "http://www.w3.org/Graphics/SVG/1.1/DTD/svg11.dtd">
<svg version="1.1" xmlns="http://www.w3.org/2000/svg" xmlns:xlink="http://www.w3.org/1999/xlink" x="0px" y="0px" viewBox="0 0 1000 1000" enable-background="new 0 0 1000 1000" xml:space="preserve">
<metadata> Svg Vector Icons : http://www.onlinewebfonts.com/icon </metadata>
<g><g transform="translate(0.000000,512.000000) scale(0.100000,-0.100000)"><path d="M7162.9,3842.9V2665.7H5985.7H4808.6V1488.6V311.4H3631.4H2454.3V-865.7v-1177.1H1277.1H100v-1368.6V-4780h191.4h191.4l3.8,1171.4l5.7,1173.3l1171.4,5.7l1173.3,3.8l3.8,1173.3L2846.7-81l1171.4,5.7l1173.3,3.8l3.8,1173.3l5.7,1171.4l1171.4,5.7l1173.3,3.8l3.8,1173.3l5.7,1171.4l1173.3,5.7l1171.4,3.8v191.4V5020H8531.4H7162.9V3842.9z"/><path d="M9411.9,481.8c-21-11.5-1022.1-1004.9-2224.1-2206.9L5000-3909.1l-1.9,574.2c-1.9,315.8-7.7,595.3-15.3,620.2c-19.1,68.9-105.3,124.4-187.6,122.5c-53.6-1.9-84.2-17.2-124.4-61.3l-53.6-59.3v-937.9v-939.8l926.4,5.7c905.3,5.7,928.3,7.6,980,45.9c99.5,74.7,99.5,227.8,0,302.4c-49.8,38.3-80.4,40.2-648.9,45.9l-595.3,5.7l2205,2205c2130.3,2132.3,2205,2206.9,2205,2275.8c0,38.3-9.6,91.9-21,116.7C9632,493.2,9500,527.7,9411.9,481.8z"/></g></g>
</svg>