<?xml version="1.0" encoding="utf-8"?>
<!-- Svg Vector Icons : http://www.onlinewebfonts.com/icon -->
<!DOCTYPE svg PUBLIC "-//W3C//DTD SVG 1.1//EN" "http://www.w3.org/Graphics/SVG/1.1/DTD/svg11.dtd">
<svg version="1.1" xmlns="http://www.w3.org/2000/svg" xmlns:xlink="http://www.w3.org/1999/xlink" x="0px" y="0px" viewBox="0 0 1000 1000" enable-background="new 0 0 1000 1000" xml:space="preserve">
<metadata> Svg Vector Icons : http://www.onlinewebfonts.com/icon </metadata>
<g><g transform="translate(0.000000,512.000000) scale(0.100000,-0.100000)"><path d="M7162.9,3842.9V2665.7H5985.7H4808.6V1488.6V311.4H3631.4H2454.3V-865.7v-1177.1H1277.1H100v-1368.6V-4780h191.4h191.4l3.8,1171.4l5.7,1173.3l1171.4,5.7l1173.3,3.8l3.8,1173.3L2846.7-81l1171.4,5.7l1173.3,3.8l3.8,1173.3l5.7,1171.4l1171.4,5.7l1173.3,3.8l3.8,1173.3l5.7,1171.4l1173.3,5.7l1171.4,3.8v191.4V5020H8531.4H7162.9V3842.9z"/><path d="M7773.5,449.2c-45.9-42.1-59.3-68.9-59.3-126.3c0-86.1,53.6-166.5,120.6-185.7c24.9-7.7,304.3-13.4,620.2-15.3l574.2-1.9L6845.2-2065.9C5643.1-3269.8,4649.7-4272.8,4638.2-4295.7c-44-86.1-13.4-214.4,63.2-250.7c38.3-21.1,101.5-30.6,164.6-24.9c15.3,1.9,1020.2,993.4,2233.7,2206.9l2205,2205l5.7-595.3c5.7-568.5,7.6-599.1,45.9-648.9c74.7-99.5,227.8-99.5,302.4,0c38.3,51.7,40.2,76.6,45.9,980l5.7,926.4h-939.8h-937.9L7773.5,449.2z"/></g></g>
</svg>