<?xml version="1.0" encoding="utf-8"?>
<!-- Svg Vector Icons : http://www.onlinewebfonts.com/icon -->
<!DOCTYPE svg PUBLIC "-//W3C//DTD SVG 1.1//EN" "http://www.w3.org/Graphics/SVG/1.1/DTD/svg11.dtd">
<svg version="1.1" xmlns="http://www.w3.org/2000/svg" xmlns:xlink="http://www.w3.org/1999/xlink" x="0px" y="0px" viewBox="0 0 1000 1000" enable-background="new 0 0 1000 1000" xml:space="preserve">
<metadata> Svg Vector Icons : http://www.onlinewebfonts.com/icon </metadata>
<g><g transform="translate(0.000000,512.000000) scale(0.100000,-0.100000)"><path d="M7162.9,3842.9V2665.7H5985.7H4808.6V1488.6V311.4H3631.4H2454.3V-865.7v-1177.1H1277.1H100v-1368.6V-4780h191.4h191.4l3.8,1171.4l5.7,1173.3l1171.4,5.7l1173.3,3.8l3.8,1173.3L2846.7-81l1171.4,5.7l1173.3,3.8l3.8,1173.3l5.7,1171.4l1171.4,5.7l1173.3,3.8l3.8,1173.3l5.7,1171.4l1173.3,5.7l1171.4,3.8v191.4V5020H8531.4H7162.9V3842.9z"/></g></g>
</svg>