<?xml version="1.0" encoding="utf-8"?>
<!-- Svg Vector Icons : http://www.onlinewebfonts.com/icon -->
<!DOCTYPE svg PUBLIC "-//W3C//DTD SVG 1.1//EN" "http://www.w3.org/Graphics/SVG/1.1/DTD/svg11.dtd">
<svg version="1.1" xmlns="http://www.w3.org/2000/svg" xmlns:xlink="http://www.w3.org/1999/xlink" x="0px" y="0px" viewBox="0 0 1000 1000" enable-background="new 0 0 1000 1000" xml:space="preserve">
<metadata> Svg Vector Icons : http://www.onlinewebfonts.com/icon </metadata>
<g><g transform="translate(0.000000,512.000000) scale(0.100000,-0.100000)"><path d="M3349.5,4998.6c-671.1-140-1276.9-709.4-1568.4-1478.3c-149.6-391.1-214.7-747.8-228.2-1259.7c-28.8-1039.2,241.6-1909.7,766.9-2463.8l141.9-149.5l23-172.6c59.4-439.1,201.3-805.3,464-1198.3c134.2-201.3,456.3-544.5,619.3-661.5c65.2-47.9,103.5-88.2,97.8-105.5c-3.8-15.3-69-335.5-145.7-711.3c-94-464-134.2-699.8-124.6-738.2c17.3-72.9,239.7-285.7,418-402.6c320.2-207.1,701.7-341.3,1175.3-412.2c237.7-36.4,949.1-32.6,1236.7,7.7c481.2,67.1,839.8,199.4,1016.2,375.8c86.3,86.3,95.9,103.5,95.9,182.1c0,155.3-157.2,887.7-270.3,1255.9c-47.9,159.1-47.9,164.9,26.8,195.5c118.9,49.9,400.7,253.1,538.8,389.2c291.4,287.6,502.3,669.1,598.2,1083.3c15.4,67.1,49.9,149.5,72.9,182.1c180.2,237.7,193.6,563.7,34.5,836c-65.2,115-256.9,314.4-387.3,402.6C7460.3,490.9,6609,715.2,5665.7,761.3c-157.2,7.7-283.8,17.3-283.8,21.1s17.3,118.9,38.3,253.1c92,592.5,122.7,998.9,122.7,1670c1.9,605.9,0,655.7-44.1,862.8C5345.5,4314.1,5010,4772.3,4476.9,4964c-134.2,47.9-159.1,49.9-571.4,55.6C3602.6,5021.6,3437.7,5015.8,3349.5,4998.6z M4358.1,4584.4c406.5-140,682.6-582.9,776.5-1246.3c46-322.1,21.1-1163.8-51.8-1821.5c-28.8-256.9-115.1-822.5-126.6-834c-3.8-3.8-383.5-159.1-845.5-345.1C3320.8,19.2,3267.1,2,3244.1,34.6c-118.9,161.1-389.2,774.6-477.4,1085.2c-168.7,582.9-189.8,1177.3-67.1,1798.5c161.1,816.8,659.6,1503.2,1213.7,1677.7C4034,4634.3,4227.7,4628.5,4358.1,4584.4z M2943.1,4371.6c-421.8-513.8-653.8-1160-709.4-1976.8c-32.6-485.1,17.3-933.7,153.4-1395.8c184.1-621.2,596.3-1384.3,916.5-1696.8c448.7-441,1244.4-791.9,2145.5-951c665.3-117,1560.7-53.7,2185.8,153.4c63.3,21.1,117,34.5,120.8,30.7c3.8-1.9-21.1-61.4-55.6-126.5c-416.1-828.3-1386.2-1217.5-2586.5-1043c-565.6,84.4-1092.9,341.3-1497.4,732.4c-210.9,205.2-360.5,404.6-496.6,659.6c-157.2,299.1-218.6,523.4-260.8,958.7c-9.6,105.5-11.5,109.3-205.1,306.8c-212.8,218.6-329.8,395-452.5,680.7C1995.9,1185,1902,1815.8,1948,2417.8c57.5,755.4,285.7,1328.7,690.2,1739c109.3,111.2,327.9,287.6,362.4,291.4C3004.4,4450.2,2979.5,4415.7,2943.1,4371.6z M5966.7,347.1c446.7-42.2,939.5-147.6,1275-274.2c289.5-109.3,471.7-216.7,627-368.1c115-115,141.9-153.4,168.7-247.3c38.3-130.4,21.1-220.5-57.5-316.4c-155.3-182.1-579-333.6-1169.6-416.1c-341.3-47.9-939.5-49.9-1213.7-1.9C4906.4-1158,4302.5-939.4,3876.8-653.7c-182.1,120.8-391.1,299.1-373.9,316.4c5.8,5.8,395,166.8,862.8,356.6l853.2,345.1h268.4C5635,366.3,5851.7,356.7,5966.7,347.1z M4154.8-2749.4C4766.4-3060,5704-3152,6442.2-2977.6c115,26.8,210.9,46,212.8,44.1c36.4-44.1,279.9-1068,279.9-1177.3c0-34.5-235.8-136.1-418-182.1c-268.4-67.1-546.4-95.9-912.7-97.8c-483.2,0-789.9,42.2-1125.5,157.2c-222.4,76.7-546.4,260.8-642.3,366.2l-42.2,44.1l113.1,546.4c61.4,301,113.1,552.2,113.1,561.8C4020.6-2691.9,4057-2699.5,4154.8-2749.4z"/><path d="M5305.2,166.9c-571.4-88.2-901.1-310.6-901.1-604c0-111.2,47.9-205.2,164.9-320.2c256.9-255,788-416.1,1455.3-442.9c1067.9-40.3,1737.1,325.9,1493.6,816.8c-117,233.9-525.4,437.2-1071.8,531.1C6210.2,189.9,5523.8,199.5,5305.2,166.9z M6365.5-237.7c423.7-74.8,828.3-251.2,793.8-343.2c-21.1-51.8-237.8-140-454.4-186c-379.6-76.7-1006.6-46-1409.2,69c-312.5,88.2-525.3,220.5-469.7,285.7c63.3,78.6,354.7,170.6,642.3,203.2C5673.3-185.9,6158.4-201.2,6365.5-237.7z"/></g></g>
</svg>