<?xml version="1.0" encoding="utf-8"?>
<!-- Svg Vector Icons : http://www.onlinewebfonts.com/icon -->
<!DOCTYPE svg PUBLIC "-//W3C//DTD SVG 1.1//EN" "http://www.w3.org/Graphics/SVG/1.1/DTD/svg11.dtd">
<svg version="1.1" xmlns="http://www.w3.org/2000/svg" xmlns:xlink="http://www.w3.org/1999/xlink" x="0px" y="0px" viewBox="0 0 1000 1000" enable-background="new 0 0 1000 1000" xml:space="preserve">
<metadata> Svg Vector Icons : http://www.onlinewebfonts.com/icon </metadata>
<g><g transform="translate(0.000000,512.000000) scale(0.100000,-0.100000)"><path d="M1802.8,4992.4c-419.4-90-802.5-475-890.5-898.2c-84.3-398.3,26.8-771.8,316-1064.8c218.3-220.2,457.7-333.2,754.6-354.3c455.8-32.5,917.4,231.7,1120.4,645.4c176.2,358.1,176.2,683.7,1.9,1047.6c-59.4,126.4-107.3,189.6-226,306.4C2582.2,4967.5,2203,5078.6,1802.8,4992.4z M2386.9,4553.8c145.6-68.9,308.3-233.7,383-383c53.6-107.3,57.5-130.2,57.5-325.6c0-208.8,0-212.6-74.7-350.5c-86.2-160.9-203-275.8-367.7-358.1c-105.3-53.6-128.3-57.5-325.6-57.5c-201.1,0-216.4,1.9-339,65.1c-233.7,118.7-406,356.2-432.8,593.7c-26.8,241.3,40.2,459.6,191.5,624.3c103.4,113,168.5,157.1,302.6,214.5c93.8,40.2,132.1,44,298.8,40.2C2247.1,4611.3,2287.3,4603.6,2386.9,4553.8z"/><path d="M7299.2,4994.3c-199.2-44-421.3-166.6-572.6-317.9c-425.1-425.2-465.4-1089.7-93.8-1558.9c214.5-270,578.4-450.1,915.4-450.1c429,0,856.1,266.2,1047.6,653.1c95.8,197.3,124.5,314.1,124.5,524.8s-26.8,327.5-124.5,526.7C8362.2,4844.9,7820.2,5105.4,7299.2,4994.3z M7891,4546.2c160.9-82.4,294.9-220.2,371.5-381.1c55.5-116.8,61.3-143.6,61.3-319.8c0-180-3.8-201.1-63.2-321.7c-82.3-166.6-224.1-308.3-385-384.9c-116.8-55.5-141.7-59.4-327.5-59.4c-185.8,0-210.7,3.8-325.6,59.4c-314.1,149.4-505.6,507.5-444.3,833.1c53.6,289.2,245.1,509.4,538.2,622.4c45.9,17.2,132.1,24.9,260.5,21.1C7749.3,4609.3,7780,4603.6,7891,4546.2z"/><path d="M1036.7,2462.5c-210.7-24.9-452-147.5-612.8-310.3c-136-136-206.8-249-273.9-432.8c-40.2-113-42.1-128.3-47.9-1578.1c-5.8-1637.5-9.6-1583.8,130.2-1760c53.6-69,111.1-114.9,199.2-157.1c118.7-59.4,136-61.3,289.2-53.6l160.9,7.7l5.8-1292.7c5.7-1287,5.7-1294.6,47.9-1371.2c59.4-113,193.4-227.9,310.2-268.1c80.4-24.9,151.3-30.6,362-24.9c239.4,5.7,273.9,9.6,358.1,55.5l95.8,47.9l95.8-47.9c84.3-44,120.7-49.8,346.6-55.5c337.1-9.6,432.8,17.2,572.6,157.1c168.5,168.5,162.8,111.1,162.8,1551.3v1246.8h187.7c155.1,0,199.2,7.7,266.2,44c114.9,61.3,212.6,164.7,271.9,289.2l49.8,107.3V91.5c0,1377-1.9,1482.3-34.5,1589.6c-55.5,178.1-147.5,333.2-272,461.6c-128.3,128.3-239.4,201.1-429,273.9l-126.4,49.8l-1024.6,1.9C1565.3,2470.1,1073.1,2468.2,1036.7,2462.5z M3243,2000.9c147.5-72.8,249-176.2,319.8-327.5l49.8-107.2l5.7-1436.4c3.8-1114.6,0-1445.9-19.2-1480.4c-57.5-109.2-216.4-124.5-304.5-30.7l-46,49.8l-9.6,1154.8l-9.6,1154.8l-46,49.8c-95.8,101.5-250.9,78.5-312.2-46c-32.6-63.2-34.5-231.7-34.5-2683.1v-2616.1l-40.2-36.4c-34.5-30.7-70.9-36.4-247.1-36.4c-321.7,0-285.4-181.9-291.1,1478.5l-5.7,1407.6l-63.2,55.5c-88.1,78.5-185.8,76.6-264.3-3.8l-55.5-57.5l-9.6-1405.7c-9.6-1317.6-11.5-1407.6-44-1440.2c-28.7-28.7-67-34.5-243.2-34.5c-193.4,0-212.6,3.8-252.8,44.1l-44,44l-3.8,1526.4c-3.8,838.8-5.7,2028.2-5.7,2641V980.1l-44,49.8c-26.8,32.6-69,53.6-120.7,61.3c-68.9,9.6-88.1,1.9-143.6-47.9l-65.1-57.5l-9.6-1158.7l-9.6-1158.7l-46-49.8c-88.1-93.8-250.9-76.6-312.2,32.6c-32.6,55.5-47.9,2568.2-15.3,2798c30.6,237.5,136,411.8,316,524.7c153.2,97.7,157.1,97.7,1264,93.8l1034.2-3.8L3243,2000.9z"/><path d="M6715.1,2447.1c-126.4-44-206.8-149.4-273.9-356.2c-250.9-766.1-1227.6-3813.1-1239.1-3862.9c-34.5-168.6,103.4-396.4,268.1-442.4c46-13.4,279.6-21.1,599.4-21.1c285.4,0,520.9-5.7,520.9-13.4c0-101.5,216.4-2215.8,231.7-2259.9c23-70.9,139.8-181.9,241.3-229.8c61.3-28.7,132.1-34.5,475-34.5c293,0,423.2,7.7,476.9,26.8c86.2,30.6,212.6,137.9,252.8,216.4c19.2,38.3,61.3,398.3,132.2,1131.8c57.5,591.8,105.3,1095.5,105.3,1120.4v42.1h542c480.7,0,547.7,3.8,616.7,36.4c157,70.9,256.6,247.1,231.7,413.7C9882.8-1682,8636,2180.9,8584.3,2280.5c-26.8,51.7-70.8,97.7-130.2,132.1l-91.9,53.6l-785.2,3.8C6935.4,2473.9,6778.3,2470.1,6715.1,2447.1z M8293.2,1954.9c346.6-1068.7,1208.5-3751.8,1208.5-3767.1c0-15.3-589.9-21.1-1955.4-21.1c-1853.9,0-1955.4,1.9-1947.7,34.5c5.7,17.2,289.2,896.3,630.1,1953.5l618.6,1919h702.9H8253L8293.2,1954.9z M8111.3-2315.9c-5.8-46-51.7-520.9-103.4-1057.2c-53.6-570.7-101.5-982.5-114.9-995.9c-26.8-26.8-660.7-28.7-687.5-1.9c-9.6,11.5-65.1,496-120.7,1078.2l-103.4,1057.2h570.7h570.7L8111.3-2315.9z"/></g></g>
</svg>