<?xml version="1.0" encoding="utf-8"?>
<!-- Svg Vector Icons : http://www.onlinewebfonts.com/icon -->
<!DOCTYPE svg PUBLIC "-//W3C//DTD SVG 1.1//EN" "http://www.w3.org/Graphics/SVG/1.1/DTD/svg11.dtd">
<svg version="1.1" xmlns="http://www.w3.org/2000/svg" xmlns:xlink="http://www.w3.org/1999/xlink" x="0px" y="0px" viewBox="0 0 1000 1000" enable-background="new 0 0 1000 1000" xml:space="preserve">
<metadata> Svg Vector Icons : http://www.onlinewebfonts.com/icon </metadata>
<g><g transform="translate(0.000000,512.000000) scale(0.100000,-0.100000)"><path d="M1938,5011.6c-421.9-61.4-748-283.8-911-617.5c-101.6-211-134.3-356.7-147.7-669.4L867.9,3462l-331.8-5.8l-333.7-5.7l-51.8-51.8c-90.1-92.1-53.7-280,61.4-310.7c21.1-5.8,178.4-11.5,349.1-11.5h312.6l3.8-3087.8l5.8-3087.8l53.7-51.8l51.8-53.7l527.4-5.8l525.5-5.8l5.8-717.3c5.8-692.4,7.7-719.2,46-771c21.1-28.8,61.4-59.4,86.3-65.2c24.9-7.7,1471-13.4,3210.5-15.4c2976.6-1.9,3168.4,0,3231.6,32.6c46,21.1,74.8,53.7,90.1,99.7c17.2,51.8,23,982,23,3899.1l1.9,3830h517.8h517.8l61.4,55.6c84.4,74.8,88.2,188,9.6,266.6l-51.8,51.8l-523.6,5.7l-523.6,5.8l-23,276.2c-15.3,201.4-34.5,314.5-71,425.8c-107.4,320.3-327.9,577.3-613.7,715.4c-314.5,153.4-67.1,141.9-3193.3,145.8C3307.4,5027,2001.3,5021.2,1938,5011.6z M7668.7,4605.1c145.8-42.2,283.8-113.2,370.1-189.9c69.1-59.4,218.7-270.4,218.7-306.9c0-7.7-42.2,5.8-95.9,32.6c-358.6,182.2-799.8,118.9-1064.4-155.4C6936,3820.6,6821,3525.3,6780.7,3182c-11.5-103.6-19.2-801.7-19.2-1728V-103.3l-90.1-21.1c-49.9-13.4-224.4-86.3-387.4-164.9c-466-218.7-533.2-220.6-980-9.6c-372.1,174.5-504.4,216.7-700,216.7c-193.7,0-324.1-40.3-698.1-216.7c-448.8-211-515.9-209.1-980,9.6c-362.5,170.7-481.4,205.2-680.8,207.1c-189.9,0-320.3-40.3-678.9-211c-140-65.2-268.5-120.8-283.9-120.8c-23,0-26.9,295.3-19.2,2153.8c7.7,2382,1.9,2265,132.3,2510.5c122.7,230.1,335.6,347.1,696.2,379.7c84.4,7.7,1348.3,13.4,2809.7,11.5C7348.4,4639.6,7567,4635.7,7668.7,4605.1z M7960.2,3797.6c53.7-24.9,120.8-72.9,149.6-107.4c47.9-57.5,128.5-193.7,128.5-220.6c0-5.7-224.4-9.6-500.6-9.6h-498.7l11.5,44.1c32.6,107.4,141.9,239.7,241.7,289.6C7630.3,3860.9,7820.2,3862.8,7960.2,3797.6z M8330.3-667.2l3.8-3736h-2944H2446.3v594.6v594.5h2278.4c1781.7,0,2286.1,5.8,2324.5,24.9c26.9,13.4,63.3,53.7,80.6,90.1c32.6,63.3,34.5,251.2,34.5,3122.3v3053.3l581.1-3.8l579.2-5.8L8330.3-667.2z M2450.1-511.9c63.3-21.1,199.5-80.5,301.1-130.4c397-199.5,629.1-247.4,888-184.1c76.7,17.2,274.3,95.9,437.3,172.6c517.8,243.6,538.9,243.6,1054.8,0c579.2-272.3,751.8-268.5,1365.5,28.8c130.4,63.3,241.7,115.1,251.2,115.1c7.7,0,13.4-172.6,13.4-381.7v-381.7l-99.7-32.6c-55.6-19.2-228.2-92.1-383.6-166.9c-466-218.7-521.7-218.7-987.7,0c-400.8,187.9-458.4,205.2-686.6,205.2s-285.8-17.3-686.6-205.2c-466-218.7-521.7-218.7-987.7,0c-395.1,187.9-456.5,205.2-684.7,205.2s-289.6-17.3-680.8-203.3c-153.4-72.9-285.8-132.3-293.4-132.3c-7.7,0-13.4,172.6-13.4,383.6v381.6l82.5,23c44.1,13.4,209.1,84.4,368.2,157.3c157.3,74.8,322.2,145.8,364.4,159.2C2187.4-462,2317.8-467.7,2450.1-511.9z M2354.2-1662.6c55.6-11.5,235.9-84.4,398.9-161.1c358.6-166.9,481.4-205.2,671.3-205.2c187.9,0,312.6,38.4,654,197.5c155.3,72.9,335.6,145.8,400.8,163c111.2,28.8,132.3,28.8,243.6,0c67.1-15.3,249.3-88.2,404.7-161.1c343.3-161.1,468-199.5,655.9-199.5c178.4,0,314.5,38.4,575.4,161.1c111.2,53.7,247.4,117,303,141.9l99.7,46v-575.4v-575.4l-2746.4,3.8l-2748.3,5.7v400.8v400.8l105.5,36.4c57.5,19.2,222.5,90.1,364.4,159.2c226.3,107.4,414.3,176.5,492.9,180.3C2243-1641.5,2298.6-1651.1,2354.2-1662.6z"/></g></g>
</svg>